<svg width="357" height="357" viewBox="0 0 357 357" fill="none" xmlns="http://www.w3.org/2000/svg">
<rect x="5" y="62" width="290" height="290" stroke="#057A8D" stroke-width="10"/>
<path d="M134.273 232.279V230.19C134.314 223.023 134.949 217.31 136.177 213.05C137.447 208.791 139.29 205.35 141.706 202.729C144.123 200.108 147.031 197.732 150.43 195.603C152.969 193.964 155.242 192.265 157.249 190.504C159.256 188.742 160.853 186.797 162.041 184.667C163.229 182.497 163.823 180.08 163.823 177.418C163.823 174.592 163.147 172.114 161.795 169.984C160.444 167.855 158.621 166.216 156.328 165.07C154.075 163.923 151.577 163.349 148.833 163.349C146.171 163.349 143.652 163.943 141.276 165.131C138.901 166.278 136.955 167.998 135.44 170.292C133.925 172.544 133.105 175.35 132.983 178.708H107.917C108.122 170.517 110.088 163.759 113.815 158.435C117.542 153.069 122.477 149.076 128.621 146.455C134.764 143.793 141.542 142.462 148.956 142.462C157.106 142.462 164.314 143.813 170.581 146.516C176.847 149.178 181.762 153.049 185.325 158.127C188.888 163.206 190.67 169.329 190.67 176.496C190.67 181.288 189.871 185.548 188.274 189.275C186.717 192.961 184.526 196.237 181.7 199.104C178.874 201.93 175.536 204.49 171.686 206.784C168.451 208.709 165.789 210.716 163.7 212.804C161.652 214.893 160.116 217.31 159.092 220.054C158.109 222.798 157.597 226.177 157.556 230.19V232.279H134.273ZM146.437 271.597C142.341 271.597 138.839 270.164 135.931 267.297C133.065 264.389 131.652 260.908 131.692 256.853C131.652 252.839 133.065 249.399 135.931 246.532C138.839 243.665 142.341 242.232 146.437 242.232C150.328 242.232 153.748 243.665 156.696 246.532C159.645 249.399 161.14 252.839 161.181 256.853C161.14 259.556 160.423 262.034 159.031 264.287C157.679 266.498 155.898 268.28 153.686 269.631C151.474 270.942 149.058 271.597 146.437 271.597Z" fill="#057A8D"/>
<circle cx="299.5" cy="57.5" r="57.5" fill="#057A8D"/>
<path d="M312.05 23.1818V93H297.288V37.1932H296.879L280.891 47.2159V34.125L298.175 23.1818H312.05Z" fill="white"/>
</svg>
