<?xml version="1.0" encoding="UTF-8"?>
<!-- Generator: visioncortex VTracer 0.6.3 -->
<svg version="1.1" xmlns="http://www.w3.org/2000/svg" width="1280" height="240">
<path d="M0 0 C2.35 1.66 2.35 1.66 4.56 3.56 C5.44 4.25 6.31 4.94 7.21 5.65 C15.82 12.85 21.28 20.51 23.56 31.56 C23.89 35.78 23.85 39.96 23.75 44.19 C23.74 45.29 23.72 46.39 23.71 47.52 C23.67 50.2 23.62 52.88 23.56 55.56 C24.33 55.84 25.09 56.11 25.88 56.4 C28.38 57.48 29.68 58.32 31.54 60.24 C32.04 60.76 32.55 61.28 33.07 61.81 C33.58 62.35 34.1 62.88 34.62 63.44 C35.14 63.97 35.66 64.5 36.19 65.04 C36.7 65.56 37.2 66.08 37.72 66.62 C38.22 67.12 38.72 67.62 39.23 68.14 C40.56 69.56 40.56 69.56 42.3 71.95 C46.07 74.64 50.15 73.8 54.62 73.56 C69.52 73.2 79.51 77.72 90.38 88 C98.34 96.47 101.59 105.94 101.94 117.56 C101.54 129.86 97.93 138.95 89.39 147.82 C79.99 156.62 70.43 159.82 57.73 159.94 C56.81 159.96 55.89 159.98 54.94 159.99 C52.02 160.05 49.1 160.09 46.19 160.12 C43.25 160.17 40.31 160.22 37.37 160.27 C35.55 160.3 33.72 160.33 31.9 160.35 C27.91 160.02 27.91 160.02 24.56 161.56 C24.45 164.52 24.4 167.46 24.39 170.43 C24.36 172.28 24.34 174.14 24.31 175.99 C24.28 178.92 24.25 181.84 24.24 184.77 C24.14 201.48 22.87 214.16 10.61 226.53 C6.35 230.49 1.96 233.4 -3.44 235.56 C-4.29 235.92 -5.15 236.29 -6.03 236.66 C-10.67 237.89 -15.04 237.78 -19.81 237.69 C-20.74 237.68 -21.67 237.67 -22.62 237.66 C-24.89 237.64 -27.17 237.6 -29.44 237.56 C-29.44 236.9 -29.44 236.24 -29.44 235.56 C-30.24 235.5 -31.05 235.44 -31.88 235.38 C-38.65 233.83 -43.53 230.83 -47.82 225.4 C-51.49 221.66 -53.98 221 -59.18 220.89 C-61.75 220.97 -64.31 221.09 -66.88 221.25 C-69.55 221.35 -72.23 221.42 -74.91 221.48 C-76.2 221.51 -77.49 221.54 -78.82 221.58 C-85.87 221.55 -92.61 220.24 -99.44 218.56 C-101.15 212.9 -99.03 209.7 -96.37 204.69 C-93.3 199.72 -89.58 195.66 -85.44 191.56 C-84.81 190.9 -84.18 190.23 -83.53 189.55 C-72.8 179.03 -57.71 172.36 -44.2 166.17 C-37.52 163 -32.13 159.21 -28.95 152.36 C-28.68 151.35 -28.41 150.35 -28.12 149.31 C-27.15 145.84 -26.45 143.59 -24.44 140.56 C-21.62 140.65 -19.9 141.14 -17.8 143.05 C-14.08 147.26 -12.64 150.05 -12.19 155.69 C-12.75 164.45 -16.32 171.92 -20.44 179.56 C-20.11 179.23 -19.78 178.9 -19.44 178.56 C-18.27 177.65 -17.1 176.75 -15.93 175.86 C10.21 155.82 10.21 155.82 31.17 130.63 C32.56 128.56 32.56 128.56 34.88 126 C37.36 122.41 37.83 118.82 38.56 114.56 C38.76 113.65 38.96 112.74 39.16 111.8 C41.65 99.44 40.96 87.55 34.39 76.61 C29.12 69.47 19.49 65.21 10.89 63.76 C-0.9 62.77 -10.65 66.37 -19.97 73.5 C-28.61 81.54 -34.7 92.35 -40.44 102.56 C-41.1 102.23 -41.76 101.9 -42.44 101.56 C-42.44 100.57 -42.44 99.58 -42.44 98.56 C-43.1 98.56 -43.76 98.56 -44.44 98.56 C-44.71 97.85 -44.99 97.15 -45.28 96.42 C-50.86 82.68 -57.9 72.28 -71.44 65.56 C-72.22 65.15 -73 64.74 -73.8 64.31 C-81.55 60.66 -89.89 60.24 -98.2 62.22 C-108.09 65.81 -115.68 71.86 -121.44 80.56 C-122.43 81.9 -123.43 83.24 -124.44 84.56 C-123.55 74.34 -119.94 66.96 -112.43 59.89 C-102.78 52.37 -91.67 48.19 -79.44 48.31 C-78.67 48.3 -77.9 48.3 -77.11 48.29 C-72.18 48.31 -68.11 49 -63.44 50.56 C-63.4 48.8 -63.4 48.8 -63.36 47.01 C-63.07 37.91 -62.57 29.86 -58.44 21.56 C-58.01 20.7 -57.59 19.84 -57.16 18.96 C-53.65 12.52 -49.34 7.89 -43.44 3.56 C-42.66 2.96 -41.88 2.36 -41.07 1.73 C-30.35 -5.07 -11.28 -5.77 0 0 Z M41.56 92.56 C42.56 95.56 42.56 95.56 42.56 95.56 Z M41.56 102.56 C42.56 106.56 42.56 106.56 42.56 106.56 Z " fill="#46DCCE" transform="translate(139.4375,2.4375)"/>
<path d="M0 0 C2.35 1.66 2.35 1.66 4.56 3.56 C5.44 4.25 6.31 4.94 7.21 5.65 C15.82 12.85 21.28 20.51 23.56 31.56 C23.89 35.78 23.85 39.96 23.75 44.19 C23.73 45.84 23.73 45.84 23.71 47.52 C23.67 50.2 23.62 52.88 23.56 55.56 C22.67 55.15 22.67 55.15 21.77 54.72 C10.22 49.43 -3.37 48.26 -15.5 52.62 C-25.57 57.16 -31.62 63.26 -37.44 72.56 C-40.54 72.27 -41.37 71.65 -43.4 69.2 C-44.05 68.23 -44.7 67.25 -45.38 66.25 C-48.49 61.61 -51.43 58.07 -56.51 55.53 C-62.06 52.63 -62.06 52.63 -63.14 49.56 C-63.38 47.14 -63.34 44.87 -63.19 42.44 C-63.16 41.59 -63.13 40.74 -63.1 39.87 C-62.74 33.21 -61.53 27.51 -58.44 21.56 C-58.01 20.7 -57.59 19.85 -57.15 18.96 C-53.66 12.51 -49.34 7.89 -43.44 3.56 C-42.66 2.96 -41.88 2.36 -41.07 1.73 C-30.35 -5.07 -11.28 -5.77 0 0 Z " fill="#45DCCE" transform="translate(139.4375,2.4375)"/>
<path d="M0 0 C4.07 2.96 6.87 6.26 9.69 10.38 C10.32 11.28 10.32 11.28 10.97 12.2 C12.79 14.8 14.59 17.41 16.38 20.02 C17.29 21.34 18.21 22.66 19.12 23.98 C19.99 25.23 20.84 26.48 21.69 27.73 C22.72 29.21 23.85 30.61 25 32 C25.99 32 26.98 32 28 32 C28.6 31.24 29.2 30.47 29.81 29.69 C33.1 25.65 36.23 24.3 41.31 23.44 C47.21 24.34 51.9 27.57 55.79 32.06 C57 34 57 34 56.69 36.25 C56.46 36.83 56.23 37.41 56 38 C55.67 37.67 55.34 37.34 55 37 C54.73 37.91 54.46 38.81 54.19 39.75 C53 43 53 43 51.31 45.19 C50.88 45.79 50.45 46.38 50 47 C50.33 47.99 50.66 48.98 51 50 C53.02 50.76 53.02 50.76 55.62 51.19 C62.29 52.69 68.67 54.82 75.12 57.06 C76.67 57.59 76.67 57.59 78.25 58.13 C79.22 58.47 80.19 58.81 81.2 59.16 C82.51 59.62 82.51 59.62 83.85 60.09 C86 61 86 61 88 63 C87.68 66.29 86.53 67.84 84.06 69.94 C75.56 76.67 67.54 79.64 56.59 78.45 C47.47 76.87 37.3 74.14 29 70 C28.67 69.01 28.34 68.02 28 67 C27.05 66.71 26.1 66.42 25.12 66.12 C22 65 22 65 20.12 62.75 C18.79 59.49 18.7 57.51 19 54 C20.39 50.86 20.39 50.86 22.25 47.75 C22.85 46.71 23.46 45.68 24.08 44.61 C25.96 42.05 27.06 41.07 30 40 C34.78 44.25 38.45 48.86 39.32 55.38 C39.42 59.55 39.07 62.32 37 66 C38.03 66.29 39.06 66.58 40.12 66.88 C43.45 67.82 46.72 68.91 50 70 C57.18 72.25 67.16 72.44 73.94 69 C74.95 68.34 75.96 67.68 77 67 C77 66.01 77 65.02 77 64 C75.78 63.75 74.56 63.51 73.3 63.25 C67.12 61.88 61.14 59.9 55.12 57.94 C54 57.57 52.87 57.21 51.71 56.83 C47.8 55.57 43.9 54.3 40 53 C40.68 47.67 43.28 44.65 46.5 40.5 C48.19 37.68 48.56 36.23 48 33 C45.13 30.68 45.13 30.68 41.62 31.06 C37.34 32.17 35.92 33.77 33 37 C30.69 38.31 30.69 38.31 29 39 C28.34 38.34 27.68 37.68 27 37 C25.34 39.53 23.7 42.08 22.06 44.62 C21.59 45.34 21.13 46.05 20.64 46.79 C17.56 51.63 15.43 55.65 16.44 61.56 C18.79 65.24 22.23 66.94 26 69 C23.35 70.77 21.46 71.63 18.48 72.6 C17.57 72.9 16.66 73.2 15.72 73.51 C14.25 73.99 14.25 73.99 12.75 74.48 C11.74 74.81 10.73 75.14 9.69 75.48 C7.56 76.17 5.42 76.87 3.29 77.56 C0.01 78.62 -3.26 79.69 -6.53 80.77 C-8.6 81.44 -10.68 82.12 -12.75 82.79 C-13.73 83.11 -14.71 83.43 -15.72 83.76 C-16.63 84.06 -17.55 84.35 -18.48 84.65 C-19.69 85.05 -19.69 85.05 -20.91 85.44 C-23 86 -23 86 -26 86 C-27.84 78.43 -26.57 73.52 -22.8 66.77 C-17.04 57.91 -9.16 53.02 1.12 50.69 C2.4 50.46 3.68 50.23 5 50 C4.22 45.26 1.3 42.1 -1.5 38.34 C-3 36 -3 36 -3 33 C-3.66 33 -4.32 33 -5 33 C-5.33 31.02 -5.66 29.04 -6 27 C-6.33 27 -6.66 27 -7 27 C-7.59 16.52 -6.64 8.39 0 0 Z M-6 14 C-5 17 -5 17 -5 17 Z M50 35 C51 37 51 37 51 37 Z M60 73 C60 73.33 60 73.66 60 74 C61.65 74 63.3 74 65 74 C65 73.67 65 73.34 65 73 C63.35 73 61.7 73 60 73 Z " fill="#F20F0E" transform="translate(1097,32)"/>
<path d="M0 0 C0.8 0.01 1.6 0.01 2.42 0.02 C8.13 0.14 12.98 0.66 18.12 3.31 C19.37 3.93 19.37 3.93 20.63 4.57 C27.98 8.59 32.95 13.76 37.38 20.81 C37.95 21.64 38.53 22.46 39.12 23.31 C40.11 23.31 41.11 23.31 42.12 23.31 C43.58 21.51 43.58 21.51 44.88 19.19 C50.52 10.39 58.94 4.7 69.05 1.75 C82.01 -0.98 95.43 1.38 106.53 8.37 C114.63 14.44 123 21.83 124.77 32.09 C126.14 44.52 125.37 55.52 121.12 67.31 C120.47 66.98 119.81 66.65 119.12 66.31 C119.22 65.07 119.32 63.82 119.41 62.54 C120.37 48.83 120.72 37.81 112.12 26.31 C105.31 19.31 94.99 15.66 85.39 15.18 C74.77 15.44 65.1 20.12 57.38 27.31 C50.03 35.3 44.42 44.89 39.12 54.31 C38.47 53.98 37.81 53.65 37.12 53.31 C37.12 52.32 37.12 51.33 37.12 50.31 C36.47 50.31 35.81 50.31 35.12 50.31 C34.85 49.6 34.57 48.9 34.29 48.17 C28.7 34.43 21.67 24.03 8.12 17.31 C7.35 16.9 6.57 16.49 5.76 16.06 C-1.98 12.41 -10.33 11.99 -18.64 13.97 C-28.53 17.56 -36.11 23.61 -41.88 32.31 C-42.87 33.65 -43.87 34.99 -44.88 36.31 C-43.99 26.09 -40.38 18.71 -32.86 11.64 C-23.29 4.17 -12.16 -0.09 0 0 Z M121.12 44.31 C122.12 47.31 122.12 47.31 122.12 47.31 Z M121.12 54.31 C122.12 58.31 122.12 58.31 122.12 58.31 Z " fill="#F10F0E" transform="translate(59.875,50.6875)"/>
<path d="M0 0 C1.73 -0.04 1.73 -0.04 3.5 -0.09 C6.56 0.38 6.56 0.38 8.11 2.02 C9.82 4.79 10.8 7.47 11.82 10.57 C12.22 11.76 12.62 12.95 13.03 14.18 C13.63 16.04 13.63 16.04 14.25 17.94 C14.67 19.18 15.08 20.43 15.51 21.71 C18.56 30.97 18.56 30.97 18.56 34.38 C19.22 34.38 19.88 34.38 20.56 34.38 C24.05 25.42 27.23 16.59 29.61 7.27 C30.59 4.28 31.23 2.49 33.56 0.38 C36.63 -0.05 36.63 -0.05 40.12 0.06 C41.86 0.1 41.86 0.1 43.63 0.14 C46.56 0.38 46.56 0.38 48.56 1.38 C48.73 7.53 48.89 13.69 49.04 19.84 C49.1 21.94 49.15 24.03 49.21 26.12 C49.29 29.14 49.37 32.15 49.44 35.16 C49.47 36.1 49.5 37.03 49.52 37.99 C49.63 42.59 49.54 46.84 48.56 51.38 C45.26 51.38 41.96 51.38 38.56 51.38 C37.66 44.48 37.44 37.76 37.5 30.81 C37.5 29.8 37.51 28.8 37.51 27.76 C37.53 25.3 37.54 22.84 37.56 20.38 C36.24 24.34 34.92 28.3 33.56 32.38 C32.9 32.38 32.24 32.38 31.56 32.38 C31.89 33.37 32.22 34.35 32.56 35.38 C31.85 37.98 31.08 40.46 30.19 43 C29.95 43.69 29.72 44.39 29.48 45.1 C27.72 50.22 27.72 50.22 26.56 51.38 C24.16 51.61 24.16 51.61 21.19 51.69 C19.72 51.74 19.72 51.74 18.23 51.8 C15.56 51.38 15.56 51.38 14.04 49.74 C12.29 46.93 11.33 44.23 10.3 41.08 C9.94 39.99 9.58 38.91 9.22 37.79 C8.77 36.41 8.33 35.04 7.88 33.62 C6.45 29.25 5.03 24.88 3.56 20.38 C3.56 30.61 3.56 40.84 3.56 51.38 C-0.07 51.38 -3.7 51.38 -7.44 51.38 C-8.63 48.99 -8.57 47.52 -8.58 44.87 C-8.59 43.93 -8.6 43 -8.6 42.03 C-8.6 41.02 -8.6 40.01 -8.61 38.97 C-8.61 37.93 -8.61 36.9 -8.62 35.83 C-8.62 33.64 -8.62 31.45 -8.62 29.25 C-8.62 25.89 -8.64 22.52 -8.66 19.16 C-8.67 17.03 -8.67 14.91 -8.67 12.78 C-8.68 11.26 -8.68 11.26 -8.69 9.72 C-8.69 8.78 -8.68 7.85 -8.68 6.88 C-8.68 6.06 -8.68 5.24 -8.68 4.39 C-8.07 -0.61 -4.1 0.05 0 0 Z " fill="#201F1F" transform="translate(847.4375,95.625)"/>
<path d="M0 0 C1.31 0 2.62 0.01 3.97 0.01 C5.02 0.01 5.02 0.01 6.1 0.01 C7.58 0.02 9.06 0.02 10.54 0.04 C12.81 0.06 15.07 0.06 17.34 0.06 C31.29 0.11 31.29 0.11 37.29 5.44 C39.93 8.42 40.86 11.28 40.88 15.24 C39.92 19.83 38.35 23.07 34.88 26.24 C35.69 27.07 36.49 27.89 37.32 28.74 C40.47 32.55 40.88 35.31 40.88 40.24 C39.25 44.95 37.03 47.51 32.88 50.24 C29.11 51.59 25.22 51.37 21.27 51.34 C20.55 51.34 19.82 51.34 19.07 51.34 C16.76 51.33 14.45 51.32 12.13 51.31 C10.56 51.3 8.99 51.3 7.42 51.29 C3.57 51.28 -0.27 51.26 -4.12 51.24 C-5.31 48.86 -5.25 47.39 -5.26 44.73 C-5.27 43.8 -5.27 42.86 -5.28 41.9 C-5.28 40.89 -5.28 39.88 -5.28 38.84 C-5.29 37.8 -5.29 36.77 -5.29 35.7 C-5.3 33.51 -5.3 31.31 -5.3 29.12 C-5.3 25.76 -5.32 22.39 -5.34 19.03 C-5.34 16.9 -5.35 14.78 -5.35 12.65 C-5.36 11.13 -5.36 11.13 -5.37 9.58 C-5.37 8.65 -5.36 7.72 -5.36 6.75 C-5.36 5.93 -5.36 5.1 -5.36 4.25 C-4.92 0.63 -3.45 0.27 0 0 Z M6.88 11.24 C6.88 14.54 6.88 17.84 6.88 21.24 C13.48 21.24 20.08 21.24 26.88 21.24 C28.46 18.09 27.6 15.6 26.88 12.24 C23.24 9.81 20.53 9.98 16.32 10.06 C15.29 10.06 15.29 10.06 14.24 10.06 C10.44 10.04 10.44 10.04 6.88 11.24 Z M27.88 15.24 C28.88 17.24 28.88 17.24 28.88 17.24 Z M6.88 31.24 C6.88 34.87 6.88 38.5 6.88 42.24 C9.84 42.3 12.8 42.34 15.76 42.37 C17.02 42.39 17.02 42.39 18.31 42.42 C19.52 42.43 19.52 42.43 20.75 42.44 C21.49 42.45 22.24 42.46 23 42.47 C25.13 42.41 25.13 42.41 26.88 40.24 C27.13 38.26 27.13 38.26 27.01 36.12 C26.97 34.84 26.93 33.56 26.88 32.24 C23.21 29.91 20.04 30.01 15.76 30.06 C14.52 30.06 13.28 30.07 12 30.07 C8.98 30.03 8.98 30.03 6.88 31.24 Z M27.88 35.24 C28.88 38.24 28.88 38.24 28.88 38.24 Z " fill="#201F1F" transform="translate(416.116943359375,95.757080078125)"/>
<path d="M0 0 C1.29 -0 2.58 -0 3.91 -0 C4.93 -0 4.93 -0 5.96 0 C8.02 0.01 10.08 0 12.14 -0 C13.43 -0 14.73 -0 16.06 0 C17.85 0 17.85 0 19.68 0 C26.05 0.28 30.64 3.81 34.91 8.32 C40.53 15.26 40.4 24.58 39.66 33.13 C38.29 39.77 35.85 44.85 30.23 48.88 C25.51 51.19 21.03 51.25 15.83 51.23 C14.54 51.23 13.25 51.22 11.92 51.22 C10.56 51.21 9.21 51.2 7.85 51.2 C6.48 51.19 5.1 51.19 3.73 51.18 C0.37 51.17 -2.98 51.15 -6.34 51.13 C-6.5 44.03 -6.66 36.93 -6.82 29.83 C-6.87 27.41 -6.93 24.99 -6.98 22.57 C-7.07 19.1 -7.14 15.64 -7.21 12.17 C-7.26 10.54 -7.26 10.54 -7.3 8.87 C-7.32 7.87 -7.34 6.87 -7.36 5.84 C-7.38 4.95 -7.4 4.06 -7.42 3.15 C-7.24 -1.27 -3.62 0 0 0 Z M4.66 10.13 C3.23 13 3.55 15.47 3.57 18.67 C3.57 19.97 3.57 21.28 3.58 22.62 C3.58 24 3.59 25.38 3.6 26.76 C3.61 28.15 3.61 29.53 3.62 30.92 C3.63 34.33 3.64 37.73 3.66 41.13 C6.23 41.19 8.79 41.23 11.35 41.26 C12.07 41.27 12.79 41.29 13.54 41.31 C17.68 41.35 21 41.16 24.66 39.13 C25.4 37.12 25.4 37.12 25.66 35.13 C26.32 34.8 26.98 34.47 27.66 34.13 C27 34.13 26.34 34.13 25.66 34.13 C25.99 33.14 26.32 32.15 26.66 31.13 C27.07 24.62 27.3 18.18 24.66 12.13 C21.01 9.39 16.77 9.91 12.41 10.01 C11.67 10.02 10.92 10.03 10.16 10.04 C8.33 10.06 6.49 10.09 4.66 10.13 Z " fill="#201F1F" transform="translate(569.3359375,95.8671875)"/>
<path d="M0 0 C1.06 -0.05 2.12 -0.1 3.21 -0.15 C7.21 0.56 7.85 2.12 10.19 5.38 C11.27 7.13 12.31 8.92 13.32 10.72 C13.88 11.72 14.44 12.72 15.01 13.75 C15.59 14.78 16.16 15.81 16.75 16.88 C17.9 18.93 19.04 20.98 20.19 23.03 C20.69 23.94 21.2 24.84 21.72 25.78 C23.17 28.34 24.66 30.86 26.19 33.38 C26.18 32.41 26.18 31.45 26.17 30.45 C26.15 26.89 26.14 23.32 26.13 19.76 C26.13 18.21 26.12 16.67 26.11 15.12 C26.1 12.91 26.09 10.69 26.09 8.47 C26.08 7.78 26.08 7.08 26.07 6.37 C26.07 4.7 26.13 3.04 26.19 1.38 C28.09 -0.52 30.76 0.25 33.28 0.24 C35.19 0.38 35.19 0.38 37.19 1.38 C37.19 17.88 37.19 34.38 37.19 51.38 C25.19 51.38 25.19 51.38 22.65 49.2 C21.9 47.65 21.9 47.65 21.12 46.06 C20.52 44.89 19.91 43.73 19.28 42.52 C18.95 41.87 18.63 41.22 18.3 40.54 C16.13 36.31 13.61 32.27 11.19 28.19 C10.22 26.55 9.26 24.91 8.31 23.27 C7.9 22.57 7.49 21.86 7.07 21.14 C6.19 19.38 6.19 19.38 6.19 17.38 C5.53 17.38 4.87 17.38 4.19 17.38 C4.52 28.59 4.85 39.81 5.19 51.38 C1.56 51.38 -2.07 51.38 -5.81 51.38 C-5.98 44.27 -6.14 37.17 -6.29 30.07 C-6.35 27.65 -6.4 25.23 -6.46 22.81 C-6.54 19.35 -6.62 15.88 -6.69 12.41 C-6.73 10.78 -6.73 10.78 -6.77 9.11 C-6.79 8.11 -6.81 7.11 -6.83 6.08 C-6.85 5.19 -6.87 4.31 -6.89 3.39 C-6.72 -0.82 -3.55 0.11 0 0 Z " fill="#1F1E1E" transform="translate(517.8125,95.625)"/>
<path d="M0 0 C1.18 3.54 0.99 6.21 0.88 9.94 C0.69 27.02 7.78 41.43 19 54 C19.87 54.99 20.74 55.98 21.64 57 C27.06 63.09 32.75 68.75 39 74 C38.67 74.66 38.34 75.32 38 76 C21.37 75.66 8.72 74.18 -3.39 61.68 C-3.92 61.13 -4.45 60.57 -5 60 C-5.51 59.53 -6.02 59.07 -6.54 58.59 C-8.36 56.61 -9.43 54.58 -10.62 52.19 C-11.26 50.94 -11.26 50.94 -11.91 49.67 C-15.77 40.19 -16.39 24.37 -12.61 14.81 C-9.75 9.35 -6.94 5.7 -2 2 C-1.34 1.34 -0.68 0.68 0 0 Z " fill="#45DCCE" transform="translate(14,87)"/>
<path d="M0 0 C0.7 0.01 1.4 0.03 2.12 0.04 C3.18 0.05 3.18 0.05 4.25 0.06 C6.12 0.23 6.12 0.23 8.12 1.23 C8.45 7.5 8.79 13.77 9.12 20.23 C14.74 20.23 20.35 20.23 26.12 20.23 C26.1 18.95 26.08 17.68 26.05 16.36 C26.04 14.69 26.02 13.02 26 11.36 C25.98 10.51 25.97 9.67 25.95 8.8 C25.94 8 25.94 7.19 25.93 6.36 C25.92 5.62 25.91 4.88 25.9 4.11 C26.12 2.23 26.12 2.23 28.12 0.23 C34.45 -0.11 34.45 -0.11 37.12 1.23 C37.12 17.73 37.12 34.23 37.12 51.23 C33.82 51.23 30.52 51.23 27.12 51.23 C25.95 48.88 26.01 47.49 26.03 44.88 C26.03 44.03 26.03 43.18 26.04 42.3 C26.05 41.41 26.05 40.52 26.06 39.61 C26.07 38.71 26.07 37.81 26.08 36.89 C26.09 34.67 26.11 32.45 26.12 30.23 C20.19 30.56 14.25 30.89 8.12 31.23 C8.12 37.83 8.12 44.43 8.12 51.23 C4.5 51.23 0.87 51.23 -2.88 51.23 C-4.07 48.85 -4.01 47.38 -4.02 44.72 C-4.03 43.79 -4.03 42.85 -4.04 41.89 C-4.04 40.88 -4.04 39.87 -4.04 38.82 C-4.05 37.79 -4.05 36.75 -4.05 35.69 C-4.06 33.49 -4.06 31.3 -4.06 29.11 C-4.06 25.74 -4.08 22.38 -4.1 19.02 C-4.1 16.89 -4.1 14.76 -4.11 12.64 C-4.12 11.12 -4.12 11.12 -4.13 9.57 C-4.12 8.64 -4.12 7.7 -4.12 6.74 C-4.12 5.92 -4.12 5.09 -4.12 4.24 C-3.78 1.45 -2.82 0.35 0 0 Z " fill="#201F1F" transform="translate(290.875,95.76953125)"/>
<path d="M0 0 C1.91 0.13 1.91 0.13 3.91 1.13 C3.91 7.4 3.91 13.67 3.91 20.13 C9.85 20.13 15.79 20.13 21.91 20.13 C21.83 14.3 21.83 14.3 21.73 8.47 C21.72 7.74 21.72 7.01 21.71 6.27 C21.7 5.52 21.69 4.78 21.68 4.01 C21.91 2.13 21.91 2.13 23.91 0.13 C25.79 -0.1 25.79 -0.1 27.91 -0.05 C28.96 -0.05 28.96 -0.05 30.04 -0.04 C31.91 0.13 31.91 0.13 33.91 1.13 C33.91 17.63 33.91 34.13 33.91 51.13 C30.28 51.13 26.65 51.13 22.91 51.13 C21.74 48.78 21.8 47.4 21.81 44.78 C21.82 43.93 21.82 43.08 21.82 42.2 C21.83 41.31 21.84 40.42 21.85 39.51 C21.85 38.61 21.86 37.71 21.86 36.79 C21.87 34.57 21.89 32.35 21.91 30.13 C19.26 30.27 16.62 30.42 13.97 30.57 C13.22 30.61 12.46 30.65 11.69 30.69 C7.99 30.57 7.99 30.57 4.91 32.13 C4.75 33.55 4.66 34.97 4.59 36.39 C4.55 37.24 4.51 38.09 4.47 38.97 C4.41 40.32 4.41 40.32 4.35 41.7 C4.3 42.6 4.26 43.5 4.22 44.43 C4.11 46.66 4.01 48.9 3.91 51.13 C0.61 51.13 -2.69 51.13 -6.09 51.13 C-6.26 44.03 -6.42 36.93 -6.57 29.83 C-6.63 27.41 -6.68 24.99 -6.74 22.57 C-6.82 19.1 -6.89 15.64 -6.97 12.17 C-7.01 10.54 -7.01 10.54 -7.05 8.87 C-7.07 7.87 -7.09 6.87 -7.11 5.84 C-7.13 4.95 -7.15 4.06 -7.17 3.15 C-6.99 -1.27 -3.65 0.01 0 0 Z " fill="#201F1F" transform="translate(692.08984375,95.8671875)"/>
<path d="M0 0 C4.84 2.48 9.07 5.33 12 10 C11.69 12.25 11.69 12.25 11 14 C10.51 13.5 10.51 13.5 10 13 C9.73 13.91 9.46 14.81 9.19 15.75 C8 19 8 19 6.31 21.19 C5.66 22.08 5.66 22.08 5 23 C5.33 23.99 5.66 24.98 6 26 C8.02 26.76 8.02 26.76 10.62 27.19 C17.29 28.69 23.67 30.82 30.12 33.06 C31.16 33.42 32.19 33.77 33.25 34.13 C34.22 34.47 35.19 34.81 36.2 35.16 C37.51 35.62 37.51 35.62 38.85 36.09 C41 37 41 37 43 39 C42.68 42.29 41.53 43.84 39.06 45.94 C30.56 52.67 22.54 55.64 11.59 54.45 C2.47 52.87 -7.7 50.14 -16 46 C-16.49 44.52 -16.49 44.52 -17 43 C-17.95 42.71 -18.9 42.42 -19.88 42.12 C-23 41 -23 41 -24.88 38.75 C-26.21 35.49 -26.3 33.51 -26 30 C-24.61 26.86 -24.61 26.86 -22.75 23.75 C-21.85 22.2 -21.85 22.2 -20.92 20.61 C-19.04 18.05 -17.94 17.07 -15 16 C-10.22 20.25 -6.55 24.86 -5.68 31.38 C-5.58 35.55 -5.93 38.32 -8 42 C-6.45 42.43 -6.45 42.43 -4.88 42.88 C-1.55 43.82 1.72 44.91 5 46 C12.18 48.25 22.16 48.44 28.94 45 C29.95 44.34 30.96 43.68 32 43 C32 42.01 32 41.02 32 40 C30.78 39.75 29.56 39.51 28.3 39.25 C22.12 37.88 16.14 35.9 10.12 33.94 C8.44 33.39 8.44 33.39 6.71 32.83 C2.8 31.57 -1.1 30.3 -5 29 C-4.32 23.67 -1.72 20.65 1.5 16.5 C3.19 13.68 3.56 12.23 3 9 C0.13 6.68 0.13 6.68 -3.38 7.06 C-7.66 8.17 -9.08 9.77 -12 13 C-14.31 14.31 -14.31 14.31 -16 15 C-17.56 13.75 -17.56 13.75 -19 12 C-18.63 8.52 -17.34 7.05 -14.69 4.88 C-14.09 4.38 -13.5 3.88 -12.89 3.37 C-8.56 0.23 -5.41 -0.71 0 0 Z M5 11 C6 13 6 13 6 13 Z M15 49 C15 49.33 15 49.66 15 50 C16.65 50 18.3 50 20 50 C20 49.67 20 49.34 20 49 C18.35 49 16.7 49 15 49 Z " fill="#1F1E1E" transform="translate(1142,56)"/>
<path d="M0 0 C1.16 -0.04 1.16 -0.04 2.34 -0.09 C5.5 0.55 6.52 1.96 8.62 4.38 C9.96 6.91 9.96 6.91 11.14 9.79 C11.58 10.85 12.03 11.91 12.48 13.01 C12.94 14.14 13.4 15.27 13.88 16.44 C14.84 18.78 15.82 21.13 16.79 23.47 C17.26 24.64 17.74 25.8 18.23 27 C19.51 30.09 20.81 33.17 22.12 36.25 C22.49 37.12 22.87 37.99 23.25 38.89 C23.95 40.52 24.64 42.14 25.34 43.76 C27.62 49.15 27.62 49.15 27.62 51.38 C23.66 51.38 19.71 51.38 15.62 51.38 C10.62 41.62 10.62 41.62 10.62 39.38 C0.23 39.87 0.23 39.87 -10.38 40.38 C-11.37 43.68 -12.36 46.97 -13.38 50.38 C-15.78 51.58 -17.32 51.48 -20 51.44 C-21.23 51.42 -21.23 51.42 -22.48 51.41 C-23.1 51.4 -23.73 51.39 -24.38 51.38 C-24.67 46.01 -23.9 42.44 -21.71 37.55 C-21.43 36.92 -21.15 36.3 -20.87 35.65 C-19.99 33.66 -19.09 31.67 -18.19 29.69 C-17.6 28.38 -17.02 27.06 -16.44 25.75 C-15.58 23.82 -14.71 21.88 -13.85 19.95 C-11.58 14.9 -9.47 9.8 -7.42 4.66 C-5.62 0.74 -4.14 0.07 0 0 Z M-0.38 14.38 C-1.24 16.31 -2.09 18.25 -2.94 20.19 C-3.41 21.27 -3.89 22.35 -4.38 23.46 C-5.71 26.39 -5.71 26.39 -4.38 29.38 C-0.41 29.7 3.54 30.03 7.62 30.38 C6.67 27.89 5.72 25.41 4.75 22.94 C4.48 22.23 4.21 21.52 3.93 20.79 C2.64 16.88 2.64 16.88 -0.38 14.38 Z " fill="#201F1F" transform="translate(753.375,95.625)"/>
<path d="M0 0 C0.78 -0.03 1.56 -0.05 2.37 -0.08 C5.12 0.33 5.88 1.08 7.56 3.25 C9.31 6.81 9.31 6.81 10.56 10.25 C10.23 10.91 9.9 11.57 9.56 12.25 C10.22 12.25 10.88 12.25 11.56 12.25 C13.71 17.16 15.84 22.07 17.97 26.98 C18.7 28.66 19.42 30.33 20.15 31.99 C21.2 34.39 22.24 36.8 23.28 39.2 C23.61 39.95 23.94 40.69 24.28 41.46 C25.8 45.01 26.56 47.33 26.56 51.25 C22.93 51.25 19.3 51.25 15.56 51.25 C12.91 46.88 11.59 44.4 10.56 39.25 C0.66 39.75 0.66 39.75 -9.44 40.25 C-11.09 43.88 -12.74 47.51 -14.44 51.25 C-18.07 51.25 -21.7 51.25 -25.44 51.25 C-24.86 45.95 -23.61 41.4 -21.69 36.44 C-21.42 35.73 -21.15 35.02 -20.87 34.3 C-19.1 29.73 -17.09 25.37 -14.8 21.04 C-12.55 16.43 -10.71 11.65 -8.85 6.87 C-6.68 1.42 -5.82 0.11 0 0 Z M-0.44 13.25 C-3.76 21.01 -3.76 21.01 -5.44 29.25 C-1.81 29.25 1.82 29.25 5.56 29.25 C5.23 26.61 4.9 23.97 4.56 21.25 C3.9 21.25 3.24 21.25 2.56 21.25 C2.44 20.49 2.32 19.72 2.19 18.94 C1.68 16.05 1.68 16.05 -0.44 13.25 Z " fill="#201F1F" transform="translate(632.4375,95.75)"/>
<path d="M0 0 C0.87 -0.06 1.75 -0.12 2.64 -0.18 C5.19 0.44 5.19 0.44 7.18 2.7 C10.14 7.76 12.27 13.28 14.5 18.69 C14.97 19.79 15.43 20.89 15.92 22.02 C16.35 23.07 16.79 24.12 17.24 25.2 C17.64 26.16 18.04 27.12 18.45 28.1 C19.19 30.44 19.19 30.44 18.19 32.44 C18.85 32.44 19.51 32.44 20.19 32.44 C21.36 35.04 22.53 37.64 23.69 40.25 C24.02 40.99 24.36 41.73 24.7 42.49 C25.17 43.55 25.17 43.55 25.66 44.64 C25.95 45.3 26.24 45.95 26.54 46.63 C27.19 48.44 27.19 48.44 27.19 51.44 C23.56 51.44 19.93 51.44 16.19 51.44 C15.86 50.45 15.53 49.46 15.19 48.44 C14.53 48.44 13.87 48.44 13.19 48.44 C12.2 45.8 11.21 43.16 10.19 40.44 C3.92 40.44 -2.35 40.44 -8.81 40.44 C-11.58 45.83 -11.58 45.83 -13.81 51.44 C-17.44 51.44 -21.07 51.44 -24.81 51.44 C-26.03 46.57 -24.76 44.14 -22.8 39.78 C-22.48 39.03 -22.16 38.29 -21.83 37.52 C-20.79 35.13 -19.74 32.75 -18.69 30.38 C-18 28.8 -17.32 27.23 -16.63 25.65 C-14.71 21.24 -12.77 16.83 -10.81 12.44 C-10.29 11.27 -9.77 10.1 -9.24 8.9 C-5.36 0.26 -5.36 0.26 0 0 Z M-0.81 13.44 C-1.65 15.89 -2.48 18.35 -3.31 20.81 C-3.55 21.51 -3.79 22.21 -4.04 22.93 C-5.35 26.6 -5.35 26.6 -5.81 30.44 C-1.52 30.44 2.77 30.44 7.19 30.44 C5.21 24.83 3.23 19.22 1.19 13.44 C0.53 13.44 -0.13 13.44 -0.81 13.44 Z " fill="#201F1F" transform="translate(923.8125,95.5625)"/>
<path d="M0 0 C0.7 0.01 1.4 0.03 2.12 0.04 C3.18 0.05 3.18 0.05 4.25 0.06 C6.12 0.23 6.12 0.23 8.12 1.23 C8.14 2.27 8.16 3.31 8.19 4.38 C8.26 8.24 8.35 12.1 8.44 15.96 C8.48 17.63 8.52 19.3 8.55 20.98 C8.59 23.38 8.65 25.78 8.71 28.18 C8.72 28.93 8.73 29.67 8.75 30.44 C8.85 34.14 8.95 37.15 11.12 40.23 C13.92 41.35 16.7 41.39 19.69 41.42 C20.83 41.44 20.83 41.44 22 41.46 C24.43 41.36 24.43 41.36 27.12 39.23 C28.39 35.18 28.29 31.03 28.37 26.81 C28.4 25.38 28.44 23.95 28.47 22.51 C28.52 20.27 28.56 18.02 28.6 15.78 C28.64 13.6 28.69 11.43 28.75 9.25 C28.78 7.3 28.78 7.3 28.82 5.32 C29.12 2.23 29.12 2.23 31.12 0.23 C33.84 -0.1 36.38 0.1 39.12 0.23 C41.23 2.34 40.34 6.96 40.36 9.87 C40.37 10.74 40.38 11.61 40.39 12.51 C40.4 14.36 40.41 16.21 40.42 18.07 C40.44 20.89 40.48 23.71 40.53 26.53 C40.54 28.33 40.54 30.13 40.55 31.93 C40.57 32.77 40.59 33.61 40.6 34.48 C40.58 39.87 39.77 42.99 36.12 47.23 C31.03 51.26 25.42 51.86 19.12 51.73 C18.37 51.75 17.61 51.76 16.84 51.78 C10.61 51.73 5.16 50.11 0.56 45.75 C-3.81 40.71 -4.03 36.52 -4.04 30.13 C-4.05 29.34 -4.05 28.55 -4.05 27.74 C-4.06 26.07 -4.06 24.4 -4.06 22.73 C-4.06 20.17 -4.08 17.62 -4.1 15.06 C-4.1 13.44 -4.1 11.82 -4.11 10.2 C-4.11 9.43 -4.12 8.66 -4.13 7.87 C-4.1 0.5 -4.1 0.5 0 0 Z M29.12 34.23 C30.12 36.23 30.12 36.23 30.12 36.23 Z " fill="#201F1F" transform="translate(463.875,95.76953125)"/>
<path d="M0 0 C1.91 0.13 1.91 0.13 3.91 1.13 C3.91 17.63 3.91 34.13 3.91 51.13 C0.61 51.13 -2.69 51.13 -6.09 51.13 C-6.15 49.77 -6.21 48.41 -6.27 47.01 C-6.36 45.24 -6.44 43.47 -6.53 41.7 C-6.57 40.8 -6.61 39.9 -6.65 38.97 C-6.69 38.12 -6.73 37.27 -6.77 36.39 C-6.81 35.6 -6.85 34.81 -6.88 33.99 C-6.9 32.12 -6.9 32.12 -8.09 31.13 C-10.95 31.06 -13.79 31.04 -16.65 31.07 C-19.44 31.09 -22.22 31.11 -25.09 31.13 C-25.09 37.73 -25.09 44.33 -25.09 51.13 C-28.39 51.13 -31.69 51.13 -35.09 51.13 C-36.3 48.72 -36.21 47.2 -36.2 44.5 C-36.2 43.54 -36.2 42.58 -36.2 41.59 C-36.2 40.55 -36.19 39.51 -36.19 38.44 C-36.19 37.37 -36.18 36.31 -36.18 35.22 C-36.18 31.81 -36.17 28.41 -36.15 25.01 C-36.15 22.7 -36.14 20.4 -36.14 18.1 C-36.13 12.44 -36.11 6.79 -36.09 1.13 C-32.46 1.13 -28.83 1.13 -25.09 1.13 C-25.09 7.73 -25.09 14.33 -25.09 21.13 C-19.15 20.8 -13.21 20.47 -7.09 20.13 C-7.1 18.77 -7.11 17.41 -7.12 16.01 C-7.13 14.24 -7.14 12.47 -7.15 10.7 C-7.16 9.8 -7.17 8.9 -7.18 7.97 C-7.18 6.69 -7.18 6.69 -7.19 5.39 C-7.2 4.2 -7.2 4.2 -7.2 2.99 C-6.94 -1.27 -3.48 0.01 0 0 Z " fill="#201F1F" transform="translate(989.08984375,95.8671875)"/>
<path d="M0 0 C0.7 0.01 1.4 0.03 2.12 0.04 C3.18 0.05 3.18 0.05 4.25 0.06 C6.12 0.23 6.12 0.23 8.12 1.23 C8.92 3.49 9.61 5.79 10.25 8.11 C10.6 9.36 10.96 10.62 11.32 11.91 C12.12 15.23 12.12 15.23 12.12 18.23 C12.78 18.23 13.45 18.23 14.12 18.23 C14.46 17.1 14.8 15.97 15.15 14.8 C15.6 13.32 16.05 11.84 16.5 10.36 C16.83 9.24 16.83 9.24 17.17 8.09 C18.9 2.46 18.9 2.46 21.12 0.23 C23 0 23 0 25.12 0.04 C26.18 0.05 26.18 0.05 27.25 0.06 C29.12 0.23 29.12 0.23 31.12 1.23 C31.12 12.78 31.12 24.33 31.12 36.23 C28.82 36.23 26.5 36.23 24.12 36.23 C22.62 33.23 23.03 30.44 23.06 27.11 C23.07 25.82 23.08 24.54 23.09 23.22 C23.1 22.24 23.11 21.25 23.12 20.23 C22.47 20.23 21.8 20.23 21.12 20.23 C21.09 20.8 21.05 21.37 21.01 21.95 C20.56 27.31 19.49 31.4 17.12 36.23 C14.82 36.23 12.5 36.23 10.12 36.23 C8.23 32.95 7.68 29.95 7.12 26.23 C6.8 25.24 6.46 24.25 6.12 23.23 C5.8 20.92 5.46 18.61 5.12 16.23 C4.8 22.83 4.46 29.43 4.12 36.23 C1.81 36.23 -0.5 36.23 -2.88 36.23 C-5.13 31.73 -4.06 25.53 -4.06 20.52 C-4.06 18.24 -4.08 15.96 -4.1 13.68 C-4.1 12.24 -4.1 10.8 -4.11 9.36 C-4.11 8.04 -4.11 6.72 -4.12 5.36 C-3.86 2.02 -3.56 0.44 0 0 Z " fill="#201F1F" transform="translate(502.875,37.76953125)"/>
<path d="M0 0 C0.74 -0.03 1.49 -0.06 2.25 -0.09 C6.23 0.99 8.03 4.82 10.07 8.21 C10.59 9.16 11.1 10.11 11.64 11.1 C12.49 12.67 12.49 12.67 13.36 14.28 C13.94 15.36 14.53 16.44 15.12 17.56 C16.02 19.2 16.02 19.2 16.92 20.86 C21.69 29.7 21.69 29.7 22.44 33.5 C20.65 33.55 18.85 33.59 17.06 33.62 C16.06 33.65 15.07 33.67 14.04 33.7 C11.44 33.5 11.44 33.5 9.44 31.5 C9.44 30.51 9.44 29.52 9.44 28.5 C6.31 28.41 3.19 28.36 0.06 28.31 C-0.83 28.29 -1.72 28.26 -2.63 28.24 C-3.48 28.23 -4.33 28.22 -5.21 28.21 C-6.39 28.18 -6.39 28.18 -7.59 28.16 C-8.24 28.27 -8.89 28.38 -9.56 28.5 C-10.22 29.49 -10.88 30.48 -11.56 31.5 C-12.22 31.5 -12.88 31.5 -13.56 31.5 C-13.56 32.16 -13.56 32.82 -13.56 33.5 C-16.86 33.5 -20.16 33.5 -23.56 33.5 C-23.56 32.84 -23.56 32.18 -23.56 31.5 C-24.22 31.17 -24.88 30.84 -25.56 30.5 C-24.9 30.5 -24.24 30.5 -23.56 30.5 C-23.29 29.78 -23.01 29.06 -22.73 28.32 C-20.74 23.5 -18.21 18.97 -15.75 14.38 C-15.23 13.37 -14.71 12.37 -14.17 11.34 C-13.65 10.38 -13.14 9.42 -12.61 8.43 C-12.14 7.56 -11.68 6.68 -11.2 5.78 C-8.34 1.8 -4.85 0.07 0 0 Z M-2.56 11.5 C-3.55 14.47 -4.54 17.44 -5.56 20.5 C-2.26 20.5 1.04 20.5 4.44 20.5 C2.79 17.53 1.14 14.56 -0.56 11.5 C-1.22 11.5 -1.88 11.5 -2.56 11.5 Z " fill="#1F1E1E" transform="translate(1130.5625,129.5)"/>
<path d="M0 0 C1.17 -0 1.17 -0 2.37 -0.01 C4.56 0.12 4.56 0.12 7.56 1.12 C7.18 3.6 6.89 4.83 5 6.54 C4.38 6.94 3.76 7.34 3.12 7.75 C1.01 9.13 -0.64 10.33 -2.44 12.12 C-4.56 12.75 -4.56 12.75 -6.44 13.12 C-6.44 14.12 -6.44 15.1 -6.44 16.12 C-7.1 16.12 -7.76 16.12 -8.44 16.12 C-4.89 19.78 -1.16 23.14 2.69 26.48 C4.74 28.28 6.67 30.16 8.56 32.12 C6.15 34.53 1.37 33.81 -1.8 33.82 C-7.54 32.72 -10.79 29.38 -14.88 25.41 C-17.22 23.32 -18.34 22.34 -21.44 22.12 C-23.1 23.79 -22.8 25.91 -23 28.19 C-23.08 29.11 -23.17 30.03 -23.25 30.97 C-23.31 31.68 -23.38 32.39 -23.44 33.12 C-26.41 33.12 -29.38 33.12 -32.44 33.12 C-34.61 28.79 -33.71 23.01 -33.75 18.25 C-33.78 17.05 -33.81 15.85 -33.84 14.62 C-33.85 13.47 -33.85 12.32 -33.86 11.13 C-33.88 10.08 -33.89 9.02 -33.91 7.93 C-33.32 4.42 -32.25 3.25 -29.44 1.12 C-26.19 0.88 -26.19 0.88 -23.44 1.12 C-23.44 4.75 -23.44 8.38 -23.44 12.12 C-15.91 10.32 -11.18 7.4 -6.44 1.12 C-4.08 -0.05 -2.62 -0.01 0 0 Z " fill="#1F1E1E" transform="translate(1229.4375,129.875)"/>
<path d="M0 0 C0.7 0.01 1.4 0.03 2.12 0.04 C3.18 0.05 3.18 0.05 4.25 0.06 C6.12 0.23 6.12 0.23 8.12 1.23 C8.2 6.69 8.25 12.16 8.29 17.62 C8.3 19.48 8.33 21.33 8.35 23.19 C8.39 25.86 8.4 28.54 8.42 31.21 C8.43 32.04 8.45 32.87 8.46 33.72 C8.47 38.41 8.14 41.41 5.12 45.23 C-0.06 50.19 -3.72 51.37 -10.74 51.33 C-12.07 51.32 -12.07 51.32 -13.42 51.32 C-14.34 51.31 -15.25 51.3 -16.19 51.29 C-17.12 51.29 -18.05 51.28 -19.01 51.28 C-21.3 51.27 -23.59 51.25 -25.88 51.23 C-26.2 47.93 -26.54 44.63 -26.88 41.23 C-25.54 41.19 -24.2 41.16 -22.82 41.12 C-21.07 41.05 -19.32 40.99 -17.56 40.92 C-16.68 40.9 -15.8 40.87 -14.89 40.85 C-14.05 40.81 -13.2 40.78 -12.32 40.74 C-11.54 40.72 -10.76 40.69 -9.96 40.66 C-7.85 40.34 -7.85 40.34 -6.12 39.19 C-4.16 36.11 -4.43 32.89 -4.43 29.35 C-4.42 28.58 -4.41 27.82 -4.39 27.02 C-4.35 24.57 -4.33 22.12 -4.31 19.67 C-4.29 17.21 -4.26 14.76 -4.22 12.3 C-4.2 10.77 -4.18 9.24 -4.18 7.72 C-4.07 0.5 -4.07 0.5 0 0 Z " fill="#201F1F" transform="translate(357.875,95.76953125)"/>
<path d="M0 0 C1.65 0 1.65 0 3.33 0.01 C4.47 0.02 5.6 0.03 6.77 0.04 C8.49 0.04 8.49 0.04 10.25 0.04 C18.73 0.09 18.73 0.09 21.02 1.23 C21.02 3.87 21.02 6.51 21.02 9.23 C20.35 9.26 19.69 9.28 19.01 9.31 C16.03 9.42 13.06 9.54 10.08 9.67 C8.52 9.73 8.52 9.73 6.92 9.79 C5.44 9.85 5.44 9.85 3.93 9.91 C3.01 9.95 2.09 9.99 1.15 10.03 C-0.97 10 -0.97 10 -1.98 11.23 C-1.39 11.25 -0.8 11.27 -0.2 11.29 C2.48 11.39 5.15 11.5 7.83 11.61 C8.76 11.64 9.69 11.67 10.64 11.7 C11.54 11.74 12.43 11.78 13.35 11.82 C14.17 11.85 14.99 11.88 15.84 11.91 C18.02 12.23 18.02 12.23 21.02 14.23 C21.2 17.36 21.2 17.36 21.02 20.23 C20.02 20.27 20.02 20.27 19.01 20.31 C16.03 20.42 13.06 20.54 10.08 20.67 C9.04 20.71 8 20.75 6.92 20.79 C5.93 20.83 4.95 20.87 3.93 20.91 C3.01 20.95 2.09 20.99 1.15 21.03 C-0.97 21 -0.97 21 -1.98 22.23 C-2.22 24.08 -2.4 25.94 -2.55 27.79 C-2.63 28.8 -2.71 29.82 -2.8 30.86 C-2.86 31.64 -2.92 32.42 -2.98 33.23 C-6.28 33.23 -9.58 33.23 -12.98 33.23 C-15.09 29.03 -14.17 23.48 -14.17 18.86 C-14.18 17.71 -14.2 16.56 -14.21 15.37 C-14.21 14.27 -14.21 13.16 -14.21 12.02 C-14.22 11.01 -14.22 9.99 -14.23 8.95 C-13.97 6.06 -13.76 4.53 -11.98 2.23 C-7.94 0.41 -4.4 -0.02 0 0 Z " fill="#201F1F" transform="translate(1170.984375,129.76953125)"/>
<path d="M0 0 C1.91 0.13 1.91 0.13 3.91 1.13 C3.93 2.07 3.95 3.01 3.97 3.98 C4.05 7.48 4.14 10.98 4.23 14.48 C4.27 15.99 4.3 17.5 4.33 19.01 C4.38 21.19 4.44 23.37 4.5 25.55 C4.53 26.86 4.56 28.17 4.59 29.51 C4.91 33.08 5.45 35.87 6.91 39.13 C11.22 40.57 15.6 40.49 20.11 40.65 C23.85 40.83 25.73 41.01 28.91 43.13 C29.16 46.7 29.16 46.7 28.91 50.13 C26.64 52.4 21.39 51.37 18.35 51.38 C17.47 51.4 16.58 51.42 15.67 51.45 C9.01 51.48 3.17 50.85 -2.15 46.41 C-2.6 45.83 -3.06 45.24 -3.53 44.63 C-4 44.05 -4.47 43.46 -4.96 42.85 C-7.64 38.77 -7.23 34.47 -7.22 29.78 C-7.22 28.97 -7.22 28.15 -7.23 27.31 C-7.23 25.59 -7.22 23.87 -7.22 22.15 C-7.21 19.51 -7.22 16.87 -7.23 14.23 C-7.23 12.56 -7.22 10.89 -7.22 9.22 C-7.22 8.42 -7.23 7.63 -7.23 6.81 C-7.2 -0.03 -6.85 0.02 0 0 Z " fill="#201F1F" transform="translate(788.08984375,95.8671875)"/>
<path d="M0 0 C0.9 -0.03 1.8 -0.06 2.72 -0.09 C8.44 -0.14 11.83 0.4 16.31 4.31 C18.77 8 19 11.03 18.31 15.31 C16.5 18.31 16.5 18.31 14.31 20.31 C13.32 20.31 12.33 20.31 11.31 20.31 C11.31 21.3 11.31 22.29 11.31 23.31 C12.3 23.64 13.29 23.97 14.31 24.31 C15.95 26.27 15.95 26.27 17.56 28.69 C18.1 29.48 18.65 30.27 19.2 31.09 C20.31 33.31 20.31 33.31 19.31 36.31 C15.1 37.28 15.1 37.28 12.31 36.31 C4.31 27.84 4.31 27.84 4.31 23.31 C2 22.98 -0.31 22.65 -2.69 22.31 C-2.69 26.93 -2.69 31.55 -2.69 36.31 C-4.67 36.31 -6.65 36.31 -8.69 36.31 C-10.66 34.34 -9.97 30.52 -10.04 27.81 C-10.07 26.69 -10.07 26.69 -10.11 25.54 C-10.16 23.95 -10.2 22.36 -10.25 20.77 C-10.31 18.32 -10.39 15.88 -10.47 13.44 C-10.51 11.9 -10.56 10.35 -10.6 8.81 C-10.63 8.08 -10.65 7.34 -10.67 6.58 C-10.72 4.83 -10.71 3.07 -10.69 1.31 C-8.4 -0.98 -3.07 0.03 0 0 Z M-2.69 8.31 C-2.69 10.95 -2.69 13.59 -2.69 16.31 C-1.06 16.37 0.56 16.41 2.19 16.44 C3.09 16.46 4 16.48 4.93 16.51 C7.5 16.56 7.5 16.56 9.31 14.31 C9.48 11.23 9.48 11.23 9.31 8.31 C7.07 7.19 5.8 7.18 3.31 7.19 C2.61 7.18 1.91 7.18 1.19 7.18 C-0.78 7.2 -0.78 7.2 -2.69 8.31 Z M10.31 10.31 C11.31 13.31 11.31 13.31 11.31 13.31 Z " fill="#1F1E1E" transform="translate(411.6875,37.6875)"/>
<path d="M0 0 C3.12 0.38 3.12 0.38 6 1 C6.33 4.63 6.66 8.26 7 12 C8.32 11.67 9.64 11.34 11 11 C11.68 9.68 12.35 8.34 13 7 C13.68 6.67 14.36 6.34 15.06 6 C15.7 5.67 16.34 5.34 17 5 C17.65 2.98 17.65 2.98 18 1 C20.52 -0.26 21.85 0.08 24.62 0.44 C25.85 0.59 25.85 0.59 27.1 0.75 C28.04 0.87 28.04 0.87 29 1 C27.46 4.68 25.22 6.99 22.38 9.75 C21.56 10.55 20.74 11.35 19.9 12.17 C19.27 12.78 18.65 13.38 18 14 C19.39 17.84 21.19 21.03 23.44 24.44 C25.89 28.21 28.12 31.91 30 36 C26.95 36.29 24.05 36.4 21 36 C18.75 34.06 18.75 34.06 17 31 C16.56 30.23 16.11 29.46 15.66 28.66 C14.4 26.46 13.19 24.24 12 22 C8.88 23.31 8.88 23.31 7 26 C6.77 27.7 6.59 29.41 6.44 31.12 C6.35 32.04 6.27 32.95 6.18 33.88 C6.12 34.58 6.06 35.28 6 36 C3.69 36 1.38 36 -1 36 C-3.25 31.5 -2.19 25.3 -2.19 20.29 C-2.19 18.01 -2.21 15.73 -2.22 13.45 C-2.23 12.01 -2.23 10.57 -2.23 9.12 C-2.23 7.81 -2.24 6.49 -2.24 5.13 C-2 2 -2 2 0 0 Z M6 13 C6.33 13.99 6.66 14.98 7 16 C7 15.01 7 14.02 7 13 C6.67 13 6.34 13 6 13 Z " fill="#1F1E1E" transform="translate(779,38)"/>
<path d="M0 0 C3.61 2.02 5.61 4.09 7 8 C7 8.99 7 9.98 7 11 C0.62 11.5 0.62 11.5 -2.56 8.94 C-4.92 6.62 -4.92 6.62 -8.31 7.25 C-9.64 7.62 -9.64 7.62 -11 8 C-10.67 8.99 -10.34 9.98 -10 11 C-7.41 12.04 -7.41 12.04 -4.31 12.81 C0.24 14.26 3.91 15.47 7.06 19.16 C9.04 23.04 8.98 26.82 8 31 C5.87 34.23 5.47 34.82 2 36 C-3.89 36.85 -9.97 37.39 -15.5 34.86 C-18.69 32.34 -19.84 30.58 -20.94 26.62 C-20.97 25.33 -20.97 25.33 -21 24 C-18.19 23.31 -18.19 23.31 -15 23 C-13.12 24.31 -13.12 24.31 -12 26 C-12 26.66 -12 27.32 -12 28 C-8.37 28 -4.74 28 -1 28 C-1.5 25.52 -1.5 25.52 -2 23 C-2.82 22.76 -3.64 22.52 -4.48 22.27 C-6.1 21.76 -6.1 21.76 -7.75 21.25 C-9.35 20.76 -9.35 20.76 -10.98 20.27 C-14.16 18.93 -15.84 17.66 -18 15 C-18 14.34 -18 13.68 -18 13 C-18.66 13 -19.32 13 -20 13 C-19.74 8.65 -19.43 6.5 -16.56 3.12 C-11.53 -1.05 -6.35 -0.62 0 0 Z " fill="#1F1E1E" transform="translate(700,38)"/>
<path d="M0 0 C2.31 0 4.62 0 7 0 C7 4.62 7 9.24 7 14 C11.29 14 15.58 14 20 14 C20 9.38 20 4.76 20 0 C22.31 0 24.62 0 27 0 C28 1 28 1 28.11 4.23 C28.11 5.67 28.11 7.1 28.1 8.54 C28.1 9.29 28.09 10.04 28.09 10.82 C28.09 13.23 28.08 15.65 28.06 18.06 C28.06 19.7 28.05 21.33 28.05 22.96 C28.04 26.98 28.02 30.99 28 35 C25.36 35 22.72 35 20 35 C20 30.05 20 25.1 20 20 C15.71 20 11.42 20 7 20 C7 24.95 7 29.9 7 35 C4.36 35 1.72 35 -1 35 C-1.02 30.18 -1.04 25.35 -1.05 20.53 C-1.06 18.89 -1.07 17.24 -1.08 15.6 C-1.09 13.25 -1.09 10.89 -1.1 8.54 C-1.1 7.8 -1.11 7.06 -1.11 6.3 C-1.11 4.53 -1.06 2.77 -1 1 C-0.67 0.67 -0.34 0.34 0 0 Z " fill="#201F1F" transform="translate(605,39)"/>
<path d="M0 0 C3.63 1.18 3.63 1.18 4.87 2.85 C5.98 5.2 6.89 7.55 7.76 9.99 C8.43 11.73 9.1 13.46 9.77 15.2 C10.24 16.47 10.24 16.47 10.72 17.78 C11.92 20.94 13.27 24.02 14.63 27.11 C16.17 30.64 16.63 32.22 16.63 36.18 C13.32 36.43 13.32 36.43 9.63 36.18 C7.3 33.92 6.66 32.26 5.63 29.18 C1.34 29.18 -2.95 29.18 -7.37 29.18 C-8.36 32.64 -8.36 32.64 -9.37 36.18 C-12.01 36.18 -14.65 36.18 -17.37 36.18 C-17.37 33.87 -17.37 31.56 -17.37 29.18 C-16.71 29.18 -16.05 29.18 -15.37 29.18 C-15.24 28.46 -15.12 27.74 -14.99 27 C-13.91 22.11 -11.83 17.6 -9.93 12.99 C-9.52 11.98 -9.11 10.97 -8.69 9.93 C-8.3 8.96 -7.9 8 -7.5 7.01 C-7.14 6.13 -6.78 5.25 -6.4 4.34 C-4.71 0.8 -4 0.21 0 0 Z M-1.37 12.18 C-2.36 15.48 -3.35 18.78 -4.37 22.18 C-0.9 21.68 -0.9 21.68 2.63 21.18 C1.97 18.21 1.31 15.24 0.63 12.18 C-0.03 12.18 -0.69 12.18 -1.37 12.18 Z " fill="#201F1F" transform="translate(742.3671875,37.82421875)"/>
<path d="M0 0 C2.97 0.49 2.97 0.49 6 1 C6.33 9.91 6.66 18.82 7 28 C10.3 28 13.6 28 17 28 C17.02 27.22 17.04 26.45 17.06 25.65 C17.16 22.14 17.26 18.63 17.38 15.12 C17.41 13.9 17.44 12.68 17.47 11.42 C17.51 10.25 17.55 9.08 17.59 7.88 C17.62 6.8 17.65 5.73 17.68 4.61 C18 2 18 2 20 0 C23.12 0.38 23.12 0.38 26 1 C26.12 5.18 26.21 9.36 26.27 13.54 C26.3 14.96 26.33 16.38 26.38 17.81 C26.44 19.85 26.47 21.9 26.49 23.95 C26.51 25.18 26.54 26.41 26.57 27.68 C25.84 31.93 24.36 33.37 21 36 C15.34 37.12 8.74 37.41 3.5 34.71 C1.09 32.67 -0.59 30.83 -2 28 C-2.24 23.67 -2.19 19.33 -2.19 15 C-2.2 13.79 -2.21 12.57 -2.22 11.32 C-2.23 10.16 -2.23 9.01 -2.23 7.81 C-2.23 6.75 -2.24 5.68 -2.24 4.58 C-2 2 -2 2 0 0 Z " fill="#201F1F" transform="translate(452,38)"/>
<path d="M0 0 C3.07 0.46 3.57 0.98 5.5 3.38 C6.55 5.59 7.51 7.85 8.42 10.12 C8.68 10.78 8.94 11.43 9.21 12.11 C9.76 13.49 10.31 14.87 10.85 16.25 C11.69 18.37 12.53 20.48 13.38 22.59 C17.5 32.96 17.5 32.96 17.5 36.38 C14.86 36.38 12.22 36.38 9.5 36.38 C6.5 30.62 6.5 30.62 6.5 28.38 C-0.9 27.96 -0.9 27.96 -7.19 31 C-8.42 33.13 -8.42 33.13 -9.5 36.38 C-11.81 36.38 -14.12 36.38 -16.5 36.38 C-15.97 29.17 -13.23 22.8 -10.62 16.12 C-10.18 14.94 -9.73 13.76 -9.27 12.54 C-8.61 10.84 -8.61 10.84 -7.95 9.11 C-7.35 7.57 -7.35 7.57 -6.74 5.99 C-5.07 2.47 -3.94 0.59 0 0 Z M-0.5 11.38 C-1.49 14.67 -2.48 17.98 -3.5 21.38 C-2.32 22.79 -2.32 22.79 1.06 22.44 C2.76 22.41 2.76 22.41 4.5 22.38 C3.46 18.51 2.46 14.88 0.5 11.38 C0.17 11.38 -0.16 11.38 -0.5 11.38 Z " fill="#201F1F" transform="translate(568.5,37.625)"/>
<path d="M0 0 C0.7 0.01 1.4 0.03 2.12 0.04 C3.18 0.05 3.18 0.05 4.25 0.06 C6.12 0.23 6.12 0.23 8.12 1.23 C8.12 17.73 8.12 34.23 8.12 51.23 C4.5 51.23 0.87 51.23 -2.88 51.23 C-4.07 48.85 -4.01 47.38 -4.02 44.72 C-4.03 43.79 -4.03 42.85 -4.04 41.89 C-4.04 40.88 -4.04 39.87 -4.04 38.82 C-4.05 37.79 -4.05 36.75 -4.05 35.69 C-4.06 33.49 -4.06 31.3 -4.06 29.11 C-4.06 25.74 -4.08 22.38 -4.1 19.02 C-4.1 16.89 -4.1 14.76 -4.11 12.64 C-4.12 11.12 -4.12 11.12 -4.13 9.57 C-4.12 8.64 -4.12 7.7 -4.12 6.74 C-4.12 5.92 -4.12 5.09 -4.12 4.24 C-3.78 1.45 -2.82 0.35 0 0 Z " fill="#201F1F" transform="translate(822.875,95.76953125)"/>
<path d="M0 0 C3.62 0.38 3.62 0.38 7 1 C7.51 2.41 8.01 3.83 8.5 5.25 C8.78 6.04 9.06 6.83 9.34 7.64 C10 10 10 10 10 14 C10.99 14 11.98 14 13 14 C13.04 13.32 13.07 12.65 13.11 11.95 C13.18 11.06 13.24 10.17 13.31 9.25 C13.37 8.37 13.43 7.49 13.49 6.58 C14.06 3.68 15.08 2.21 17 0 C19.31 0.33 21.62 0.66 24 1 C24 9.58 24 18.16 24 27 C22.35 27 20.7 27 19 27 C18.4 24.24 18 21.84 18 19 C17.34 19 16.68 19 16 19 C15.67 21.64 15.34 24.28 15 27 C13.02 27 11.04 27 9 27 C6.78 22.38 5.62 19.23 6 14 C5.34 14 4.68 14 4 14 C4.33 14.99 4.66 15.98 5 17 C5.09 18.71 5.13 20.42 5.12 22.12 C5.13 23.01 5.13 23.9 5.13 24.82 C5 27 5 27 4 28 C2.33 28.04 0.67 28.04 -1 28 C-2.58 23.25 -2.18 18.42 -2.19 13.44 C-2.2 12.37 -2.21 11.3 -2.22 10.21 C-2.23 9.19 -2.23 8.17 -2.23 7.12 C-2.23 6.19 -2.24 5.25 -2.24 4.29 C-2 2 -2 2 0 0 Z " fill="#201F1F" transform="translate(893,170)"/>
<path d="M0 0 C0 7.26 0 14.52 0 22 C6.12 21.92 6.12 21.92 12.24 21.82 C13 21.81 13.76 21.81 14.55 21.8 C15.72 21.79 15.72 21.79 16.92 21.77 C19 22 19 22 22 24 C22 26.64 22 29.28 22 32 C11.44 32 0.88 32 -10 32 C-12.04 27.92 -11.23 22.68 -11.25 18.19 C-11.27 17.09 -11.29 16 -11.31 14.87 C-11.32 13.82 -11.32 12.76 -11.33 11.67 C-11.34 10.7 -11.35 9.73 -11.36 8.74 C-10.93 5.5 -9.89 3.64 -8 1 C-4.71 -1.33 -4.16 -1.04 0 0 Z " fill="#201F1F" transform="translate(1082,131)"/>
<path d="M0 0 C1.22 -0.03 2.45 -0.06 3.71 -0.09 C7.77 0.45 9.42 1.39 12.19 4.38 C12.68 6.41 12.68 6.41 12.5 8.44 C12.15 12.22 12.15 12.22 12.19 15.38 C12.85 16.03 13.51 16.69 14.19 17.38 C14.63 20.79 14.67 22.65 12.74 25.55 C8.93 28.27 5.5 27.81 0.94 27.62 C0.1 27.61 -0.74 27.59 -1.61 27.57 C-3.68 27.52 -5.75 27.45 -7.81 27.38 C-9.81 23.37 -9 18.28 -9 13.88 C-9.01 12.8 -9.02 11.73 -9.04 10.63 C-9.04 9.61 -9.04 8.58 -9.04 7.53 C-9.05 6.59 -9.05 5.65 -9.06 4.68 C-8.49 -0.69 -4.44 0.05 0 0 Z M-0.81 5.38 C-1.47 6.03 -2.13 6.69 -2.81 7.38 C-2.81 8.37 -2.81 9.35 -2.81 10.38 C0.16 10.38 3.13 10.38 6.19 10.38 C6.19 9.06 6.19 7.74 6.19 6.38 C2.78 5.7 2.78 5.7 -0.81 5.38 Z M-1.81 16.38 C-2.14 18.03 -2.47 19.68 -2.81 21.38 C0.49 21.38 3.79 21.38 7.19 21.38 C6.86 19.72 6.53 18.07 6.19 16.38 C3.55 16.38 0.91 16.38 -1.81 16.38 Z M-1.81 22.38 C-1.81 22.7 -1.81 23.03 -1.81 23.38 C0.5 23.38 2.81 23.38 5.19 23.38 C5.19 23.05 5.19 22.72 5.19 22.38 C2.88 22.38 0.57 22.38 -1.81 22.38 Z " fill="#201F1F" transform="translate(804.8125,169.625)"/>
<path d="M0 0 C1.54 0.01 1.54 0.01 3.1 0.01 C4.22 0.01 5.33 0.02 6.47 0.02 C8.22 0.04 8.22 0.04 10.01 0.06 C11.76 0.06 11.76 0.06 13.54 0.06 C22.23 0.1 22.23 0.1 24.51 1.24 C24.51 3.22 24.51 5.2 24.51 7.24 C21.21 7.57 17.91 7.9 14.51 8.24 C14.51 17.48 14.51 26.72 14.51 36.24 C12.2 36.24 9.89 36.24 7.51 36.24 C5.18 32.75 5.27 31.38 5.31 27.26 C5.32 25.52 5.32 25.52 5.33 23.74 C5.35 22.52 5.37 21.31 5.38 20.06 C5.39 18.83 5.4 17.6 5.41 16.34 C5.44 13.31 5.47 10.27 5.51 7.24 C2.54 7.24 -0.43 7.24 -3.49 7.24 C-4.12 4.87 -4.12 4.87 -4.49 2.24 C-2.49 0.24 -2.49 0.24 0 0 Z " fill="#201F1F" transform="translate(855.490234375,37.757080078125)"/>
<path d="M0 0 C1.93 0.1 1.93 0.1 4 1 C5.67 2.96 5.67 2.96 7.19 5.38 C7.7 6.17 8.21 6.96 8.73 7.77 C11.34 12.35 11.78 16.84 11 22 C9 25.06 9 25.06 6 27 C2.43 27.66 -0.82 27.35 -4.31 26.31 C-6.69 24.46 -7.75 22.74 -9 20 C-9.53 14.89 -8.29 12.08 -5.62 7.75 C-5 6.71 -4.37 5.68 -3.73 4.61 C-2 2 -2 2 0 0 Z " fill="#F10F0E" transform="translate(1125,72)"/>
<path d="M0 0 C0 10.56 0 21.12 0 32 C-3.3 32 -6.6 32 -10 32 C-13.02 28.98 -12.29 26.07 -12.32 21.94 C-12.32 20.89 -12.32 19.84 -12.31 18.75 C-12.33 17.71 -12.34 16.67 -12.36 15.61 C-12.36 10.03 -12.29 5.74 -9 1 C-5.3 -1.18 -4.31 -1.08 0 0 Z M-11 7 C-11 10.63 -11 14.26 -11 18 C-10.67 18 -10.34 18 -10 18 C-10 14.37 -10 10.74 -10 7 C-10.33 7 -10.66 7 -11 7 Z " fill="#201F1F" transform="translate(1254,131)"/>
<path d="M0 0 C2.62 0.38 2.62 0.38 5 1 C5 3.64 5 6.28 5 9 C6.98 9 8.96 9 11 9 C11.66 6.36 12.32 3.72 13 1 C17 0 17 0 19 1 C18.52 9.24 17.02 17 15 25 C13.35 25 11.7 25 10 25 C9 18.25 9 18.25 9 16 C7.35 16 5.7 16 4 16 C3.01 18.97 2.02 21.94 1 25 C-0.65 25 -2.3 25 -4 25 C-5.07 19.51 -4.81 15.15 -3.69 9.69 C-3.56 8.97 -3.43 8.26 -3.29 7.52 C-2.27 2.27 -2.27 2.27 0 0 Z M-1 2 C0 4 0 4 0 4 Z M12 7 C13 9 13 9 13 9 Z M-3 13 C-2 15 -2 15 -2 15 Z M-4 18 C-3 20 -3 20 -3 20 Z " fill="#F20F0E" transform="translate(617,171)"/>
<path d="M0 0 C2.47 0.12 2.47 0.12 5 1 C6.37 2.72 6.37 2.72 7.44 5.06 C8.04 6.39 8.04 6.39 8.66 7.75 C11.27 14.1 13.67 20.54 16 27 C12.59 27.16 12.59 27.16 9 27 C8.32 25.76 8.32 25.76 7.62 24.5 C7.09 23.68 6.55 22.85 6 22 C2.96 21.54 0.05 21.71 -3 22 C-3.33 23.65 -3.66 25.3 -4 27 C-5.98 27 -7.96 27 -10 27 C-9.49 20.8 -8.01 15.82 -5.56 10.12 C-5.25 9.37 -4.94 8.61 -4.62 7.83 C-2.28 2.28 -2.28 2.28 0 0 Z M1 10 C0.67 12.31 0.34 14.62 0 17 C1.65 17 3.3 17 5 17 C4.34 14.69 3.68 12.38 3 10 C2.34 10 1.68 10 1 10 Z " fill="#201F1F" transform="translate(874,170)"/>
<path d="M0 0 C2.44 0.06 2.44 0.06 5 1 C8.08 5.29 9.81 10.23 11.69 15.12 C12.01 15.94 12.33 16.75 12.66 17.58 C12.96 18.36 13.26 19.14 13.57 19.95 C13.85 20.65 14.12 21.36 14.41 22.09 C15 24 15 24 15 27 C12.12 27.19 12.12 27.19 9 27 C7 24 7 24 7 21 C2.05 21.5 2.05 21.5 -3 22 C-3.33 23.65 -3.66 25.3 -4 27 C-5.98 27 -7.96 27 -10 27 C-9.49 20.8 -8.01 15.82 -5.56 10.12 C-5.25 9.37 -4.94 8.61 -4.62 7.83 C-2.28 2.28 -2.28 2.28 0 0 Z M1 10 C0.67 12.31 0.34 14.62 0 17 C1.98 17 3.96 17 6 17 C5.01 14.69 4.02 12.38 3 10 C2.34 10 1.68 10 1 10 Z " fill="#201F1F" transform="translate(831,170)"/>
<path d="M0 0 C2.97 0.5 2.97 0.5 6 1 C6 3.31 6 5.62 6 8 C6.58 7.75 7.15 7.5 7.75 7.25 C10 7 10 7 12.15 8.61 C14.56 11.73 14.29 13.21 13.81 17.06 C13.7 18.11 13.58 19.15 13.46 20.22 C13 23 13 23 12 26 C10.02 26 8.04 26 6 26 C5.92 21.84 6.02 18.05 7 14 C6.01 14 5.02 14 4 14 C3.01 17.96 2.02 21.92 1 26 C-0.65 26 -2.3 26 -4 26 C-4.03 24.19 -4.05 22.38 -4.06 20.56 C-4.07 19.55 -4.09 18.54 -4.1 17.5 C-4 15 -4 15 -3 14 C-3.04 12.97 -3.08 11.94 -3.12 10.88 C-2.98 6.39 -1.95 3.98 0 0 Z M-1 4 C0 6 0 6 0 6 Z " fill="#F20F0E" transform="translate(700,170)"/>
<path d="M0 0 C0 0.66 0 1.32 0 2 C0.99 2 1.98 2 3 2 C2.69 4.08 2.38 6.17 2.06 8.25 C1.8 9.99 1.8 9.99 1.54 11.77 C1.13 14.23 0.66 16.59 0 19 C-0.87 18.98 -1.73 18.96 -2.62 18.94 C-5.99 18.9 -5.99 18.9 -9.19 19.62 C-12 20 -12 20 -15 18 C-15 17.01 -15 16.02 -15 15 C-15.66 15 -16.32 15 -17 15 C-15.89 6.22 -15.89 6.22 -12 3 C-7.58 0.05 -5.32 -0.1 0 0 Z M-7 6 C-8.77 8.29 -8.77 8.29 -10 11 C-9.67 11.99 -9.34 12.98 -9 14 C-8.01 13.67 -7.02 13.34 -6 13 C-5.67 10.69 -5.34 8.38 -5 6 C-5.66 6 -6.32 6 -7 6 Z " fill="#F20F0E" transform="translate(670,177)"/>
<path d="M0 0 C1.26 0.01 1.26 0.01 2.55 0.01 C3.39 0.01 4.22 0 5.09 0 C5.89 0 6.69 0 7.51 0 C8.25 0.01 8.99 0.01 9.75 0.01 C11.61 0.14 11.61 0.14 13.61 1.14 C13.61 2.46 13.61 3.78 13.61 5.14 C11.3 5.47 8.99 5.8 6.61 6.14 C6.61 13.07 6.61 20 6.61 27.14 C4.63 27.14 2.65 27.14 0.61 27.14 C-0.33 24.31 -0.51 22.61 -0.49 19.69 C-0.48 18.84 -0.48 17.99 -0.48 17.12 C-0.47 16.24 -0.46 15.36 -0.45 14.45 C-0.45 13.56 -0.44 12.66 -0.44 11.74 C-0.43 9.54 -0.41 7.34 -0.39 5.14 C-2.37 5.14 -4.35 5.14 -6.39 5.14 C-6.95 3.2 -6.95 3.2 -7.39 1.14 C-5.45 -0.8 -2.58 0 0 0 Z " fill="#212020" transform="translate(851.388671875,169.86328125)"/>
<path d="M0 0 C2.31 0.33 4.62 0.66 7 1 C7 12.55 7 24.1 7 36 C4.69 36 2.38 36 0 36 C-0.17 31.03 -0.33 26.07 -0.48 21.1 C-0.54 19.41 -0.59 17.72 -0.65 16.03 C-0.73 13.6 -0.81 11.18 -0.88 8.75 C-0.91 7.99 -0.93 7.23 -0.96 6.45 C-1.01 4.63 -1.01 2.82 -1 1 C-0.67 0.67 -0.34 0.34 0 0 Z " fill="#201F1F" transform="translate(827,38)"/>
<path d="M0 0 C2.78 2.08 3.83 3.39 4.75 6.75 C4.87 7.86 4.87 7.86 5 9 C4.34 9 3.68 9 3 9 C3 9.66 3 10.32 3 11 C0.36 11.99 -2.28 12.98 -5 14 C-2.69 14.33 -0.38 14.66 2 15 C2 16.32 2 17.64 2 19 C0.59 19.22 -0.83 19.43 -2.25 19.62 C-3.43 19.8 -3.43 19.8 -4.64 19.98 C-7.44 20 -8.75 19.66 -11 18 C-12.82 13.71 -13.53 9.46 -11.94 5.06 C-8.47 1.37 -5.19 -0.93 0 0 Z M-4 6 C-4 6.66 -4 7.32 -4 8 C-3.01 7.67 -2.02 7.34 -1 7 C-1.99 6.67 -2.98 6.34 -4 6 Z M-6 7 C-6 7.66 -6 8.32 -6 9 C-5.34 8.67 -4.68 8.34 -4 8 C-4.66 7.67 -5.32 7.34 -6 7 Z " fill="#F20F0E" transform="translate(649,177)"/>
<path d="M0 0 C4.46 2.14 4.46 2.14 5.88 4.38 C5.61 7.86 4.84 9.43 2.88 12.38 C3.87 13.86 3.87 13.86 4.88 15.38 C5.31 18.31 5.31 18.31 4.88 21.38 C3 23.75 3 23.75 -0.12 25.38 C-3.49 25.69 -6.76 25.61 -10.12 25.38 C-11.36 19.88 -10.99 15.08 -10 9.56 C-9.77 8.28 -9.54 6.99 -9.3 5.67 C-8.12 2.38 -8.12 2.38 -5.7 0.39 C-3.12 -0.62 -3.12 -0.62 0 0 Z M-6.12 3.38 C-5.12 6.38 -5.12 6.38 -5.12 6.38 Z M-3.12 4.38 C-5.43 7.09 -5.43 7.09 -4.75 9.56 C-4.54 10.16 -4.34 10.76 -4.12 11.38 C-2.14 11.04 -0.17 10.72 1.88 10.38 C3.21 7.38 3.21 7.38 1.88 4.38 C-0.54 4.12 -0.54 4.12 -3.12 4.38 Z M3.88 5.38 C4.88 7.38 4.88 7.38 4.88 7.38 Z M-9.12 11.38 C-8.12 13.38 -8.12 13.38 -8.12 13.38 Z M-8.12 13.38 C-7.12 16.38 -7.12 16.38 -7.12 16.38 Z M-5.12 14.38 C-5.12 15.03 -5.12 15.69 -5.12 16.38 C-6.12 16.87 -6.12 16.87 -7.12 17.38 C-6.46 18.69 -5.81 20.01 -5.12 21.38 C-0.67 20.88 -0.67 20.88 3.88 20.38 C3.88 19.06 3.88 17.74 3.88 16.38 C2.88 16.87 2.88 16.87 1.88 17.38 C2.2 18.03 2.54 18.69 2.88 19.38 C1.88 19.38 0.89 19.38 -0.12 19.38 C-0.12 17.72 -0.12 16.07 -0.12 14.38 C-1.77 14.38 -3.43 14.38 -5.12 14.38 Z M-10.12 17.38 C-9.13 18.86 -9.13 18.86 -8.12 20.38 C-7.8 19.38 -7.46 18.4 -7.12 17.38 C-8.12 17.38 -9.11 17.38 -10.12 17.38 Z M-2.12 21.38 C-2.12 22.03 -2.12 22.69 -2.12 23.38 C-1.46 23.05 -0.81 22.72 -0.12 22.38 C-0.79 22.05 -1.44 21.72 -2.12 21.38 Z M-7.12 23.38 C-3.12 24.38 -3.12 24.38 -3.12 24.38 Z " fill="#3A6B67" transform="translate(430.125,171.625)"/>
<path d="M0 0 C0 0.66 0 1.32 0 2 C1.14 2.12 1.14 2.12 2.31 2.25 C5 3 5 3 6.88 4.69 C8.39 7.81 7.68 9.65 7 13 C7.19 13.87 7.37 14.73 7.56 15.62 C8 18 8 18 7.25 20.25 C6 22 6 22 3 23 C2.34 23.99 1.68 24.98 1 26 C-2.08 26.4 -4.04 26.62 -7 26 C-9.88 23.62 -9.88 23.62 -12 21 C-12.66 20.34 -13.32 19.68 -14 19 C-14.43 10.21 -14.43 10.21 -13 7 C-11.12 5.44 -11.12 5.44 -9 4 C-8.23 3.2 -8.23 3.2 -7.44 2.38 C-5.12 0.16 -3.14 0 0 0 Z M-8 7 C-8.92 10.1 -8.92 10.1 -9.25 13.62 C-9.4 14.81 -9.55 16 -9.7 17.23 C-9.8 18.14 -9.9 19.06 -10 20 C-9.34 20 -8.68 20 -8 20 C-7.67 20.99 -7.34 21.98 -7 23 C-2.44 23.44 -2.44 23.44 1.68 21.9 C3.6 19.14 3.56 16.76 3.75 13.44 C3.83 12.28 3.9 11.12 3.98 9.93 C4.22 7.06 4.22 7.06 3 5 C-2.88 4.62 -2.88 4.62 -8 7 Z M-10 8 C-9 11 -9 11 -9 11 Z M-12 13 C-11 15 -11 15 -11 15 Z M5 15 C6 17 6 17 6 17 Z M-5 24 C-1 25 -1 25 -1 25 Z " fill="#39635F" transform="translate(371,171)"/>
<path d="M0 0 C0 1.65 0 3.3 0 5 C0.99 5 1.98 5 3 5 C3.33 5.99 3.66 6.98 4 8 C2.35 8.33 0.7 8.66 -1 9 C-1.33 11.64 -1.66 14.28 -2 17 C-1.34 17.33 -0.68 17.66 0 18 C-0.33 19.65 -0.66 21.3 -1 23 C-3.38 23.12 -3.38 23.12 -6 23 C-8.38 20.62 -8.34 19.76 -8.62 16.5 C-8.7 15.71 -8.77 14.91 -8.85 14.09 C-8.95 12.73 -9 11.37 -9 10 C-9.12 8.89 -9.25 7.77 -9.38 6.62 C-9 3 -9 3 -6.19 0.5 C-3 -1 -3 -1 0 0 Z " fill="#F20F0E" transform="translate(693,174)"/>
<path d="M0 0 C1.65 0 3.3 0 5 0 C5 11.22 5 22.44 5 34 C3.35 34 1.7 34 0 34 C0 22.78 0 11.56 0 0 Z " fill="#201F1F" transform="translate(757,167)"/>
<path d="M0 0 C2.31 0 4.62 0 7 0 C6.53 2.85 6.05 5.69 5.57 8.54 C5.19 10.83 4.82 13.13 4.46 15.43 C4.29 16.51 4.11 17.58 3.94 18.69 C3.78 19.68 3.63 20.68 3.46 21.7 C3 24 3 24 2 25 C0.33 25.04 -1.33 25.04 -3 25 C-3.38 23.34 -3.71 21.68 -4 20 C-3.67 19.67 -3.34 19.34 -3 19 C-2.79 17.51 -2.63 16 -2.5 14.5 C-2.11 10.11 -2.11 10.11 -1 9 C-0.77 7.49 -0.59 5.96 -0.44 4.44 C-0.35 3.61 -0.27 2.78 -0.18 1.93 C-0.12 1.3 -0.06 0.66 0 0 Z " fill="#F20F0E" transform="translate(677,171)"/>
<path d="M0 0 C2.65 0.95 3.91 1.5 5.44 3.88 C5.19 7.22 4.83 8.48 2.44 10.88 C-0.22 11.44 -2.85 11.61 -5.56 11.88 C-5.56 12.87 -5.56 13.85 -5.56 14.88 C-3.25 15.21 -0.94 15.53 1.44 15.88 C1.77 16.87 2.1 17.85 2.44 18.88 C-4.71 19.48 -4.71 19.48 -8.56 16.75 C-10.86 13.45 -11.02 11.81 -10.56 7.88 C-8.91 7.22 -7.26 6.56 -5.56 5.88 C-6.55 5.54 -7.54 5.22 -8.56 4.88 C-3.52 -0.17 -3.52 -0.17 0 0 Z M-2.56 3.88 C-4.05 6.35 -4.05 6.35 -5.56 8.88 C-4.5 10.17 -4.5 10.17 -2 9.94 C-1.2 9.92 -0.39 9.9 0.44 9.88 C-0.22 9.22 -0.88 8.56 -1.56 7.88 C-0.57 6.88 0.42 5.9 1.44 4.88 C0.12 4.54 -1.2 4.22 -2.56 3.88 Z M3.44 3.88 C4.44 5.88 4.44 5.88 4.44 5.88 Z M-3.56 16.88 C0.44 17.88 0.44 17.88 0.44 17.88 Z " fill="#385956" transform="translate(447.5625,178.125)"/>
<path d="M0 0 C2.67 2.19 3.86 3.71 4.23 7.19 C4.12 9.68 3.85 11.66 3 14 C-0.06 16.56 -0.06 16.56 -3 18 C-3.33 17.67 -3.66 17.34 -4 17 C-4 17.33 -4 17.66 -4 18 C-6.25 18.38 -6.25 18.38 -9 18 C-11.35 15.06 -12.81 12.57 -14 9 C-13.31 6.38 -13.31 6.38 -12 4 C-9.88 3.19 -9.88 3.19 -8 3 C-8.33 2.01 -8.66 1.02 -9 0 C-5.39 -1.2 -3.64 -1.04 0 0 Z M-6 0 C-6 0.66 -6 1.32 -6 2 C-4.68 1.67 -3.36 1.34 -2 1 C-3.32 0.67 -4.64 0.34 -6 0 Z M-6.75 4 C-8.55 6.88 -8.69 9.67 -9 13 C-5.09 14.47 -5.09 14.47 -1 15 C-0.67 11.37 -0.34 7.74 0 4 C-4.59 2.51 -4.59 2.51 -6.75 4 Z M2 6 C3 9 3 9 3 9 Z M-11 7 C-10 9 -10 9 -10 9 Z " fill="#364A48" transform="translate(510,179)"/>
<path d="M0 0 C0.6 0.19 1.2 0.37 1.81 0.56 C4.16 1.22 4.16 1.22 7 0 C7.33 0.66 7.66 1.32 8 2 C11.79 2.31 11.79 2.31 14 0.94 C16.45 -0.21 17.51 0.11 20 1 C20.2 4.63 19.86 6.87 18 10 C16.06 9.62 16.06 9.62 14 9 C13.67 8.34 13.34 7.68 13 7 C12.01 8.49 12.01 8.49 11 10 C9.68 9.67 8.36 9.34 7 9 C7.66 9 8.32 9 9 9 C8.01 7.68 7.02 6.36 6 5 C5.34 6.65 4.68 8.3 4 10 C2.35 9.67 0.7 9.34 -1 9 C-1.66 7.02 -2.32 5.04 -3 3 C-2.34 3 -1.68 3 -1 3 C-0.67 2.01 -0.34 1.02 0 0 Z " fill="#262525" transform="translate(1147,190)"/>
<path d="M0 0 C0.12 0.58 0.25 1.16 0.38 1.75 C0.92 4.02 0.92 4.02 2.06 6 C3 8 3 8 3 12 C2.34 12 1.68 12 1 12 C1.33 13.98 1.66 15.96 2 18 C0.33 18 -1.33 18 -3 18 C-3.66 18.33 -4.32 18.66 -5 19 C-5.33 18.67 -5.66 18.34 -6 18 C-8.05 18.41 -8.05 18.41 -10 19 C-12.11 16.69 -12.97 15.48 -13.14 12.31 C-13.03 11.36 -12.93 10.41 -12.81 9.44 C-12.72 8.49 -12.62 7.54 -12.52 6.56 C-12 4 -12 4 -10 1 C-7.95 2.96 -7.05 4.43 -6.8 7.27 C-6.81 9.52 -6.87 11.75 -7 14 C-4.97 13.4 -4.97 13.4 -3 12 C-2.12 9.4 -2.12 9.4 -1.81 6.44 C-1.06 1.06 -1.06 1.06 0 0 Z M-11 5 C-10.67 6.65 -10.34 8.3 -10 10 C-9.67 10 -9.34 10 -9 10 C-9 8.35 -9 6.7 -9 5 C-9.66 5 -10.32 5 -11 5 Z M-1 8 C-0.34 9.32 0.32 10.64 1 12 C1 10.68 1 9.36 1 8 C0.34 8 -0.32 8 -1 8 Z M0 15 C1 17 1 17 1 17 Z " fill="#3A6460" transform="translate(394,178)"/>
<path d="M0 0 C1.32 0.33 2.64 0.66 4 1 C4 3.31 4 5.62 4 8 C2.35 8.66 0.7 9.32 -1 10 C-0.01 10 0.98 10 2 10 C1.67 10.66 1.34 11.32 1 12 C-1.87 11.43 -2.86 11.14 -5 9 C-7.58 8.83 -7.58 8.83 -10 9 C-10.33 9.66 -10.66 10.32 -11 11 C-11.66 9.35 -12.32 7.7 -13 6 C-13.66 6 -14.32 6 -15 6 C-15 7.98 -15 9.96 -15 12 C-15.99 11.67 -16.98 11.34 -18 11 C-18.75 9.06 -18.75 9.06 -19 7 C-18.67 6.34 -18.34 5.68 -18 5 C-18.66 4.67 -19.32 4.34 -20 4 C-19.01 4 -18.02 4 -17 4 C-15 3.69 -13 3.35 -11 3 C-10.67 3.66 -10.34 4.32 -10 5 C-8.86 4.75 -8.86 4.75 -7.69 4.5 C-5 4 -5 4 -2 4 C-1.34 2.68 -0.68 1.36 0 0 Z M-9 6 C-8.67 6.66 -8.34 7.32 -8 8 C-7.67 7.34 -7.34 6.68 -7 6 C-7.66 6 -8.32 6 -9 6 Z M-1 6 C-0.34 6.66 0.32 7.32 1 8 C1 7.34 1 6.68 1 6 C0.34 6 -0.32 6 -1 6 Z " fill="#151415" transform="translate(1177,173)"/>
<path d="M0 0 C1.88 0.12 1.88 0.12 4 1 C5.12 3.94 5.12 3.94 6 7 C6.66 7.66 7.32 8.32 8 9 C7.34 9 6.68 9 6 9 C6 9.66 6 10.32 6 11 C6.99 10.67 7.98 10.34 9 10 C9.33 10.99 9.66 11.98 10 13 C9.34 13 8.68 13 8 13 C8.04 13.68 8.08 14.36 8.12 15.06 C7.97 18.6 7.06 21.63 6 25 C5.01 25 4.02 25 3 25 C2.33 21.07 1.97 17.49 2.12 13.5 C2.21 8.96 0.91 6.07 -1 2 C-0.67 1.34 -0.34 0.68 0 0 Z M3 4 C4 6 4 6 4 6 Z M4 7 C5 9 5 9 5 9 Z M5 14 C6 18 6 18 6 18 Z M3 18 C3.66 19.32 4.32 20.64 5 22 C4.67 20.68 4.34 19.36 4 18 C3.67 18 3.34 18 3 18 Z " fill="#385A57" transform="translate(537,172)"/>
<path d="M0 0 C0.6 0.23 1.2 0.45 1.81 0.69 C1.81 1.68 1.81 2.67 1.81 3.69 C2.8 3.69 3.79 3.69 4.81 3.69 C4.81 4.68 4.81 5.67 4.81 6.69 C3.49 6.69 2.17 6.69 0.81 6.69 C0.67 7.95 0.52 9.2 0.38 10.5 C0.08 13.11 -0.35 15.16 -1.19 17.69 C-0.2 18.35 0.79 19.01 1.81 19.69 C0.16 20.35 -1.49 21.01 -3.19 21.69 C-4.74 20 -4.74 20 -6.19 17.69 C-6.01 15.29 -6.01 15.29 -5.31 12.75 C-4.28 8.92 -4.36 6.54 -5.19 2.69 C-3.61 0.19 -2.98 -0.43 0 0 Z M-2.19 6.69 C-1.19 10.69 -1.19 10.69 -1.19 10.69 Z M-3.19 11.69 C-2.19 15.69 -2.19 15.69 -2.19 15.69 Z " fill="#39625E" transform="translate(474.1875,175.3125)"/>
<path d="M0 0 C0.33 0.66 0.66 1.32 1 2 C2.98 2 4.96 2 7 2 C7 2.99 7 3.98 7 5 C8.32 5.33 9.64 5.66 11 6 C10.67 7.32 10.34 8.64 10 10 C8.68 9.67 7.36 9.34 6 9 C6.99 9 7.98 9 9 9 C7.07 6.78 7.07 6.78 4 6 C3.01 6.5 3.01 6.5 2 7 C1.67 6.01 1.34 5.02 1 4 C0.38 4.35 -0.24 4.7 -0.88 5.06 C-1.58 5.37 -2.28 5.68 -3 6 C-3.66 5.67 -4.32 5.34 -5 5 C-4.67 6.32 -4.34 7.64 -4 9 C-4.99 9.5 -4.99 9.5 -6 10 C-6.33 8.02 -6.66 6.04 -7 4 C-7.99 5.98 -8.98 7.96 -10 10 C-10.66 9.67 -11.32 9.34 -12 9 C-12.59 6.35 -12.74 3.71 -13 1 C-6.38 0.88 -6.38 0.88 -3 2 C-2.01 1.34 -1.02 0.68 0 0 Z " fill="#1F1E1E" transform="translate(1257,190)"/>
<path d="M0 0 C-0.33 0.99 -0.66 1.98 -1 3 C-2.32 3.33 -3.64 3.66 -5 4 C-5.66 6.64 -6.32 9.28 -7 12 C-7.66 12 -8.32 12 -9 12 C-8.67 13.32 -8.34 14.64 -8 16 C-10.48 15.01 -10.48 15.01 -13 14 C-12.34 9.05 -11.68 4.1 -11 -1 C-3.12 -2.12 -3.12 -2.12 0 0 Z M-10 0 C-9 4 -9 4 -9 4 Z M-9 4 C-8 8 -8 8 -8 8 Z M-10 9 C-9 12 -9 12 -9 12 Z " fill="#396460" transform="translate(601,180)"/>
<path d="M0 0 C-0.33 0.99 -0.66 1.98 -1 3 C-2.32 3 -3.64 3 -5 3 C-5.14 3.97 -5.29 4.94 -5.44 5.94 C-6 9 -6 9 -7 10 C-7.37 11.99 -7.7 13.99 -8 16 C-9.32 15.34 -10.64 14.68 -12 14 C-11.17 2.74 -11.17 2.74 -9 -1 C-5.23 -2.26 -3.63 -1.37 0 0 Z M-6 0 C-5.67 0.99 -5.34 1.98 -5 3 C-4.67 2.01 -4.34 1.02 -4 0 C-4.66 0 -5.32 0 -6 0 Z M-8 2 C-7 4 -7 4 -7 4 Z M-9 5 C-8 8 -8 8 -8 8 Z M-11 9 C-10.67 10.65 -10.34 12.3 -10 14 C-9.67 12.68 -9.34 11.36 -9 10 C-9.66 9.67 -10.32 9.34 -11 9 Z " fill="#3A6360" transform="translate(412,180)"/>
<path d="M0 0 C3.06 0.12 3.06 0.12 5.06 1.12 C5.06 4.09 5.06 7.06 5.06 10.12 C2.42 10.12 -0.22 10.12 -2.94 10.12 C-3.13 8.65 -3.32 7.17 -3.5 5.69 C-3.6 4.86 -3.71 4.04 -3.82 3.19 C-3.86 2.51 -3.9 1.83 -3.94 1.12 C-2.94 0.12 -2.94 0.12 0 0 Z " fill="#201F1F" transform="translate(374.9375,136.875)"/>
<path d="M0 0 C2.12 0.94 2.12 0.94 4 2 C3.67 4.31 3.34 6.62 3 9 C5.31 9.66 7.62 10.32 10 11 C10.33 10.01 10.66 9.02 11 8 C11.33 9.32 11.66 10.64 12 12 C8.36 14.43 6.29 14.16 2 14 C1.67 13.01 1.34 12.02 1 11 C0.34 11 -0.32 11 -1 11 C-3 8 -3 8 -2.75 4.38 C-2.5 3.26 -2.25 2.15 -2 1 C-1.34 0.67 -0.68 0.34 0 0 Z M1 2 C2 5 2 5 2 5 Z " fill="#354D4B" transform="translate(553,183)"/>
<path d="M0 0 C1.32 0.33 2.64 0.66 4 1 C3.67 2.32 3.34 3.64 3 5 C2.34 5 1.68 5 1 5 C0.67 5.99 0.34 6.98 0 8 C1.32 8.66 2.64 9.32 4 10 C3.67 10.66 3.34 11.32 3 12 C1.68 12 0.36 12 -1 12 C-1 13.98 -1 15.96 -1 18 C-1.66 17.67 -2.32 17.34 -3 17 C-3.33 15.67 -3.67 14.33 -4 13 C-4.66 12.67 -5.32 12.34 -6 12 C-5.54 7.89 -5.19 5.68 -2 3 C-1.34 2.01 -0.68 1.02 0 0 Z M-4 7 C-3 9 -3 9 -3 9 Z " fill="#374644" transform="translate(494,170)"/>
<path d="M0 0 C1.32 0.33 2.64 0.66 4 1 C3.67 4.63 3.34 8.26 3 12 C2.34 10.68 1.68 9.36 1 8 C0.01 9.32 -0.98 10.64 -2 12 C-3.65 11.67 -5.3 11.34 -7 11 C-6.67 10.01 -6.34 9.02 -6 8 C-6.39 5.86 -6.39 5.86 -7 4 C-3.62 3.16 -1.33 2.89 2 4 C1.34 2.68 0.68 1.36 0 0 Z M-4 5 C-3.67 5.99 -3.34 6.98 -3 8 C-2.01 7.67 -1.02 7.34 0 7 C-0.33 6.34 -0.66 5.68 -1 5 C-1.99 5 -2.98 5 -4 5 Z M-4 8 C-4.33 8.66 -4.66 9.32 -5 10 C-4.34 10 -3.68 10 -3 10 C-3.33 9.34 -3.66 8.68 -4 8 Z " fill="#242323" transform="translate(1096,188)"/>
<path d="M0 0 C3.28 3 4.86 4.79 5.38 9.25 C5 12 5 12 4 14 C3.34 14 2.68 14 2 14 C1.67 13.34 1.34 12.68 1 12 C0.01 12.5 0.01 12.5 -1 13 C-0.67 10.36 -0.34 7.72 0 5 C-1.32 5 -2.64 5 -4 5 C-6.25 3 -6.25 3 -8 1 C-5.07 -0.46 -3.24 -0.45 0 0 Z M2 9 C3 11 3 11 3 11 Z " fill="#37504E" transform="translate(563,178)"/>
<path d="M0 0 C1.32 0 2.64 0 4 0 C4.33 1.32 4.66 2.64 5 4 C4.01 4.66 3.02 5.32 2 6 C2.66 6.33 3.32 6.66 4 7 C3.67 8.65 3.34 10.3 3 12 C0.62 12.12 0.62 12.12 -2 12 C-2.66 11.34 -3.32 10.68 -4 10 C-3.69 7.06 -3.33 4.65 -2 2 C-1.34 2 -0.68 2 0 2 C0 1.34 0 0.68 0 0 Z " fill="#232222" transform="translate(1231,188)"/>
<path d="M0 0 C0.12 0.58 0.25 1.16 0.38 1.75 C0.92 4.02 0.92 4.02 2.06 6 C3 8 3 8 3 12 C2.34 12 1.68 12 1 12 C1.33 13.98 1.66 15.96 2 18 C0.33 18 -1.33 18 -3 18 C-3.66 18.33 -4.32 18.66 -5 19 C-5 18.34 -5 17.68 -5 17 C-5.66 16.67 -6.32 16.34 -7 16 C-6.38 15.57 -5.76 15.13 -5.12 14.69 C-2.29 11.1 -2.03 7.83 -1.39 3.36 C-1 1 -1 1 0 0 Z M-1 8 C-0.34 9.32 0.32 10.64 1 12 C1 10.68 1 9.36 1 8 C0.34 8 -0.32 8 -1 8 Z M0 15 C1 17 1 17 1 17 Z " fill="#3A635F" transform="translate(394,178)"/>
<path d="M0 0 C0.66 0.66 1.32 1.32 2 2 C1.69 4 1.35 6 1 8 C1.19 8.87 1.37 9.73 1.56 10.62 C2 13 2 13 1.25 15.25 C0 17 0 17 -3 18 C-3.33 18.66 -3.66 19.32 -4 20 C-4.99 20 -5.98 20 -7 20 C-6.5 18.51 -6.5 18.51 -6 17 C-5.34 17 -4.68 17 -4 17 C-3.94 15.41 -3.94 15.41 -3.89 13.79 C-3.82 12.4 -3.75 11.01 -3.69 9.62 C-3.66 8.93 -3.64 8.23 -3.62 7.51 C-3.51 5.48 -3.51 5.48 -3 2 C-2.01 1.34 -1.02 0.68 0 0 Z M-1 10 C0 12 0 12 0 12 Z " fill="#385855" transform="translate(377,176)"/>
<path d="M0 0 C0.99 0.33 1.98 0.66 3 1 C4.72 1 6.34 0.43 8 0 C8 1.32 8 2.64 8 4 C7.38 4.06 6.76 4.12 6.12 4.19 C3.81 4.81 3.81 4.81 2.81 7.12 C1.89 10.4 1.4 13.62 1 17 C0.67 17 0.34 17 0 17 C-0.14 15.87 -0.29 14.73 -0.44 13.56 C-0.61 10.19 -0.61 10.19 -2 9 C-2.19 5.56 -2.19 5.56 -2 2 C-1.34 1.34 -0.68 0.68 0 0 Z M-1 3 C0 5 0 5 0 5 Z M0 5 C1 9 1 9 1 9 Z " fill="#376964" transform="translate(519,179)"/>
<path d="M0 0 C0.99 0.33 1.98 0.66 3 1 C3.66 0.67 4.32 0.34 5 0 C5.33 0.99 5.66 1.98 6 3 C9.3 2.67 12.6 2.34 16 2 C14 6 14 6 11 8 C8.52 8.2 8.52 8.2 5.81 8.12 C4.91 8.11 4.01 8.09 3.08 8.07 C2.39 8.05 1.71 8.02 1 8 C0.67 5.36 0.34 2.72 0 0 Z M9 4 C9 4.66 9 5.32 9 6 C9.66 5.67 10.32 5.34 11 5 C10.34 4.67 9.68 4.34 9 4 Z M4 6 C8 7 8 7 8 7 Z " fill="#385B58" transform="translate(419,189)"/>
<path d="M0 0 C0.99 0.33 1.98 0.66 3 1 C3.66 0.67 4.32 0.34 5 0 C4.67 2.97 4.34 5.94 4 9 C3.34 9 2.68 9 2 9 C2.33 10.98 2.66 12.96 3 15 C0.62 15.19 0.62 15.19 -2 15 C-2.66 14.01 -3.32 13.02 -4 12 C-3.34 11.01 -2.68 10.02 -2 9 C-1.33 6.72 -1.33 6.72 -0.88 4.31 C-0.71 3.5 -0.54 2.7 -0.37 1.86 C-0.25 1.25 -0.12 0.63 0 0 Z M0 5 C0.66 6.32 1.32 7.64 2 9 C2 7.68 2 6.36 2 5 C1.34 5 0.68 5 0 5 Z " fill="#3B6F6A" transform="translate(582,180)"/>
<path d="M0 0 C-0.04 1.09 -0.08 2.19 -0.12 3.31 C-0.32 7.09 -0.32 7.09 2 10 C5.08 10.25 5.08 10.25 8 10 C8 10.66 8 11.32 8 12 C8.66 12.66 9.32 13.32 10 14 C2.74 14.62 2.74 14.62 -0.94 11.56 C-1.62 10.72 -2.3 9.87 -3 9 C-3.33 8.67 -3.66 8.34 -4 8 C-4.04 5.67 -4.04 3.33 -4 1 C-1 0 -1 0 0 0 Z " fill="#3B6864" transform="translate(362,183)"/>
<path d="M0 0 C2.65 0.95 3.91 1.5 5.44 3.88 C5.12 6.56 5.12 6.56 4.44 8.88 C0.56 7.12 0.56 7.12 -0.56 4.88 C-3.64 5.65 -3.64 5.65 -5.56 7.88 C-5.56 7.22 -5.56 6.56 -5.56 5.88 C-6.55 5.54 -7.54 5.22 -8.56 4.88 C-3.52 -0.17 -3.52 -0.17 0 0 Z M3.44 3.88 C4.44 5.88 4.44 5.88 4.44 5.88 Z " fill="#39726D" transform="translate(447.5625,178.125)"/>
<path d="M0 0 C1.32 0 2.64 0 4 0 C4.12 0.62 4.25 1.24 4.38 1.88 C4.87 4.19 4.87 4.19 7 6 C7.12 8.62 7.12 8.62 7 11 C5.89 10.84 4.77 10.67 3.62 10.5 C0.28 9.95 0.28 9.95 -2 10 C-2.22 6.14 -1.6 3.51 0 0 Z M2 4 C3 7 3 7 3 7 Z " fill="#222121" transform="translate(1143,174)"/>
<path d="M0 0 C2.33 2.81 2.98 3.86 3.44 7.62 C3.62 8.74 3.81 9.85 4 11 C5.94 12.51 5.94 12.51 8 13 C8 13.99 8 14.98 8 16 C5.12 16.19 5.12 16.19 2 16 C-0.42 12.37 -0.21 10.62 -0.12 6.31 C-0.1 4.54 -0.1 4.54 -0.07 2.74 C-0.05 1.83 -0.02 0.93 0 0 Z M2 7 C3 11 3 11 3 11 Z " fill="#343232" transform="translate(571,181)"/>
<path d="M0 0 C0.99 0 1.98 0 3 0 C3 1.32 3 2.64 3 4 C4.65 4.33 6.3 4.66 8 5 C8 7.31 8 9.62 8 12 C7.01 11.67 6.02 11.34 5 11 C4.31 8.94 4.31 8.94 4 7 C3.34 8.65 2.68 10.3 2 12 C-0.58 8.12 -0.63 5.61 -1 1 C-0.67 0.67 -0.34 0.34 0 0 Z M6 6 C7 10 7 10 7 10 Z " fill="#201F1F" transform="translate(1168,188)"/>
<path d="M0 0 C1.32 0.33 2.64 0.66 4 1 C4 1.66 4 2.32 4 3 C4.99 3.33 5.98 3.66 7 4 C8.19 7.06 8.19 7.06 9 10 C8.01 10 7.02 10 6 10 C5.67 9.34 5.34 8.68 5 8 C4.34 8.66 3.68 9.32 3 10 C2.34 10 1.68 10 1 10 C-0.16 6.53 -0.07 3.64 0 0 Z " fill="#232222" transform="translate(1135,189)"/>
<path d="M0 0 C1.94 1.62 1.94 1.62 3 4 C2.69 7.75 2.69 7.75 2 11 C1.01 11 0.02 11 -1 11 C-1 8.69 -1 6.38 -1 4 C-2.98 4 -4.96 4 -7 4 C-7.66 2.68 -8.32 1.36 -9 0 C-5.43 -1.19 -3.61 -0.98 0 0 Z M-6 0 C-6 0.66 -6 1.32 -6 2 C-4.68 1.67 -3.36 1.34 -2 1 C-3.32 0.67 -4.64 0.34 -6 0 Z " fill="#3B7973" transform="translate(510,179)"/>
<path d="M0 0 C0.08 0.76 0.17 1.53 0.25 2.31 C0.74 5.14 0.74 5.14 3.06 6.5 C3.7 7 4.34 7.49 5 8 C5.25 10.69 5.25 10.69 5 13 C3.35 12.67 1.7 12.34 0 12 C-0.33 10.02 -0.66 8.04 -1 6 C-1.99 5.67 -2.98 5.34 -4 5 C-4.33 4.01 -4.66 3.02 -5 2 C-1.12 0 -1.12 0 0 0 Z M3 8 C4 10 4 10 4 10 Z " fill="#396460" transform="translate(460,181)"/>
<path d="M0 0 C-0.33 2.31 -0.66 4.62 -1 7 C-3.38 7.62 -3.38 7.62 -6 8 C-6.66 7.34 -7.32 6.68 -8 6 C-7.75 2.94 -7.75 2.94 -7 0 C-4.33 -1.33 -2.83 -0.67 0 0 Z M-4 3 C-4.33 3.99 -4.66 4.98 -5 6 C-4.01 5.67 -3.02 5.34 -2 5 C-2.66 4.34 -3.32 3.68 -4 3 Z " fill="#292828" transform="translate(1244,192)"/>
<path d="M0 0 C1.98 0.66 3.96 1.32 6 2 C5.84 2.6 5.67 3.2 5.5 3.81 C4.89 6.11 4.89 6.11 5 9 C2.62 9.19 2.62 9.19 0 9 C-2 6 -2 6 -1.69 3.38 C-1 1 -1 1 0 0 Z " fill="#191818" transform="translate(1082,176)"/>
<path d="M0 0 C4 1 4 1 6 3 C6.12 6.62 6.12 6.62 6 10 C3.69 9.67 1.38 9.34 -1 9 C-0.67 6.03 -0.34 3.06 0 0 Z " fill="#242223" transform="translate(1178,190)"/>
<path d="M0 0 C0.33 0.99 0.66 1.98 1 3 C1.66 3 2.32 3 3 3 C3.33 2.01 3.66 1.02 4 0 C4.12 6.62 4.12 6.62 3 10 C3.99 10.66 4.98 11.32 6 12 C4.35 12.66 2.7 13.32 1 14 C-0.55 12.33 -0.55 12.33 -2 10 C-1.86 7.42 -1.86 7.42 -1.19 4.75 C-0.97 3.86 -0.76 2.97 -0.54 2.05 C-0.36 1.37 -0.18 0.7 0 0 Z M1 4 C2 8 2 8 2 8 Z " fill="#395351" transform="translate(470,183)"/>
<path d="M0 0 C2.97 0.5 2.97 0.5 6 1 C6 3.64 6 6.28 6 9 C4.02 9 2.04 9 0 9 C-1.11 5.67 -0.84 3.38 0 0 Z " fill="#343232" transform="translate(1274,190)"/>
<path d="M0 0 C1.94 0.31 1.94 0.31 4 1 C5.07 4.2 5.07 6.66 5 10 C3.35 10 1.7 10 0 10 C-0.95 6.3 -0.95 3.7 0 0 Z M2 6 C3 8 3 8 3 8 Z " fill="#212020" transform="translate(1117,190)"/>
<path d="M0 0 C1.32 0.33 2.64 0.66 4 1 C4.12 1.78 4.25 2.57 4.38 3.38 C4.79 6.14 4.79 6.14 7 8 C5.68 8 4.36 8 3 8 C3 8.66 3 9.32 3 10 C1.35 10.33 -0.3 10.66 -2 11 C-2 8.69 -2 6.38 -2 4 C-1.34 3.67 -0.68 3.34 0 3 C0 2.01 0 1.02 0 0 Z M-1 5 C0 7 0 7 0 7 Z M0 7 C1 10 1 10 1 10 Z " fill="#395B58" transform="translate(422,178)"/>
<path d="M0 0 C1.53 0.09 3.05 0.25 4.56 0.44 C5.8 0.59 5.8 0.59 7.07 0.75 C7.7 0.83 8.34 0.91 9 1 C9 3.64 9 6.28 9 9 C8.34 9 7.68 9 7 9 C6.67 8.01 6.34 7.02 6 6 C5.34 6.66 4.68 7.32 4 8 C3.34 8 2.68 8 2 8 C1.81 6.82 1.81 6.82 1.62 5.62 C1.21 2.86 1.21 2.86 -1 1 C-0.67 0.67 -0.34 0.34 0 0 Z " fill="#191818" transform="translate(1092,176)"/>
<path d="M0 0 C0.33 0 0.66 0 1 0 C1 15.18 1 30.36 1 46 C0.67 46 0.34 46 0 46 C0 30.82 0 15.64 0 0 Z " fill="#201F1F" transform="translate(684,98)"/>
<path d="M0 0 C0.33 0 0.66 0 1 0 C1 15.18 1 30.36 1 46 C0.67 46 0.34 46 0 46 C0 30.82 0 15.64 0 0 Z " fill="#201F1F" transform="translate(561,98)"/>
<path d="M0 0 C0.33 0 0.66 0 1 0 C1 15.18 1 30.36 1 46 C0.67 46 0.34 46 0 46 C0 30.82 0 15.64 0 0 Z " fill="#201F1F" transform="translate(510,98)"/>
<path d="M0 0 C2.47 0.99 2.47 0.99 5 2 C5 3.32 5 4.64 5 6 C4.01 6 3.02 6 2 6 C2.7 8.85 2.7 8.85 4 10 C3.67 10.99 3.34 11.98 3 13 C1.68 12.34 0.36 11.68 -1 11 C-1.03 9.54 -1.05 8.08 -1.06 6.62 C-1.07 5.81 -1.09 5 -1.1 4.16 C-1 2 -1 2 0 0 Z " fill="#211F20" transform="translate(1121,176)"/>
<path d="M0 0 C0.99 0.33 1.98 0.66 3 1 C3.33 1.99 3.66 2.98 4 4 C6.02 4.73 6.02 4.73 8 5 C8.33 6.32 8.66 7.64 9 9 C8.01 9 7.02 9 6 9 C6 8.01 6 7.02 6 6 C5.34 6 4.68 6 4 6 C3.67 7.98 3.34 9.96 3 12 C2.34 11.67 1.68 11.34 1 11 C0.59 8.5 0.59 8.5 0.38 5.44 C0.3 4.43 0.23 3.41 0.15 2.37 C0.1 1.59 0.05 0.81 0 0 Z " fill="#191819" transform="translate(1102,173)"/>
<path d="M0 0 C0.66 0.66 1.32 1.32 2 2 C4.57 2.65 4.57 2.65 7 3 C7 5.31 7 7.62 7 10 C4.03 9.5 4.03 9.5 1 9 C0.3 5.85 0 3.27 0 0 Z " fill="#161516" transform="translate(1193,175)"/>
<path d="M0 0 C1.98 0.66 3.96 1.32 6 2 C5.67 4.31 5.34 6.62 5 9 C3.35 9.33 1.7 9.66 0 10 C-0.66 8.35 -1.32 6.7 -2 5 C-1.34 4.67 -0.68 4.34 0 4 C0 2.68 0 1.36 0 0 Z M2 6 C1.67 6.66 1.34 7.32 1 8 C1.66 8 2.32 8 3 8 C2.67 7.34 2.34 6.68 2 6 Z " fill="#282626" transform="translate(1193,190)"/>
<path d="M0 0 C2.12 0.94 2.12 0.94 4 2 C4 3.98 4 5.96 4 8 C2.02 8 0.04 8 -2 8 C-2.93 4.99 -3.04 4.13 -2 1 C-1.34 0.67 -0.68 0.34 0 0 Z " fill="#302E2E" transform="translate(1084,191)"/>
<path d="M0 0 C0 0.66 0 1.32 0 2 C-0.99 2.33 -1.98 2.66 -3 3 C-2.34 4.32 -1.68 5.64 -1 7 C-1.66 7 -2.32 7 -3 7 C-3 7.99 -3 8.98 -3 10 C-3.99 10 -4.98 10 -6 10 C-6.33 6.7 -6.66 3.4 -7 0 C-4.33 -1.33 -2.83 -0.67 0 0 Z " fill="#2A2929" transform="translate(1080,189)"/>
<path d="M0 0 C2.88 -0.12 2.88 -0.12 6 0 C8 2 8 2 8.12 5.12 C8.08 6.07 8.04 7.02 8 8 C7.01 8 6.02 8 5 8 C4.67 7.01 4.34 6.02 4 5 C3.67 6.32 3.34 7.64 3 9 C2.34 9 1.68 9 1 9 C0.67 6.03 0.34 3.06 0 0 Z " fill="#201F1F" transform="translate(1218,191)"/>
<path d="M0 0 C1.32 0.33 2.64 0.66 4 1 C4 3.31 4 5.62 4 8 C2.35 8.33 0.7 8.66 -1 9 C-2.19 7.31 -2.19 7.31 -3 5 C-1.62 2.25 -1.62 2.25 0 0 Z M-1 6 C-0.34 6.66 0.32 7.32 1 8 C1 7.34 1 6.68 1 6 C0.34 6 -0.32 6 -1 6 Z " fill="#1C1B1B" transform="translate(1177,173)"/>
<path d="M0 0 C1.68 0.29 3.34 0.62 5 1 C5 2.65 5 4.3 5 6 C3.38 6.75 3.38 6.75 1 7 C-2.25 5.06 -2.25 5.06 -5 3 C-4.36 2.69 -3.72 2.38 -3.06 2.06 C-1.06 1.17 -1.06 1.17 0 0 Z " fill="#1F1E1E" transform="translate(1162,190)"/>
<path d="M0 0 C2.31 0.33 4.62 0.66 7 1 C6.01 2.49 6.01 2.49 5 4 C5.66 4.33 6.32 4.66 7 5 C6.67 6.32 6.34 7.64 6 9 C4.68 9 3.36 9 2 9 C1.86 8.26 1.71 7.51 1.56 6.75 C1.1 4.48 0.58 2.24 0 0 Z " fill="#201F1F" transform="translate(1123,191)"/>
<path d="M0 0 C1.65 0.33 3.3 0.66 5 1 C5 3.62 4.69 5.51 4 8 C2.35 8 0.7 8 -1 8 C-1 4.89 -0.83 2.89 0 0 Z " fill="#151415" transform="translate(1202,177)"/>
<path d="M0 0 C0.99 0.33 1.98 0.66 3 1 C3.33 2.33 3.67 3.67 4 5 C4.99 5.33 5.98 5.66 7 6 C6.67 6.99 6.34 7.98 6 9 C5.34 9 4.68 9 4 9 C3.67 9.66 3.34 10.32 3 11 C0.29 7.17 -0.33 4.67 0 0 Z " fill="#1F1E1E" transform="translate(1150,173)"/>
<path d="M0 0 C0.99 0.66 1.98 1.32 3 2 C3 3.32 3 4.64 3 6 C3.3 7.34 3.62 8.68 4 10 C2.35 9.67 0.7 9.34 -1 9 C-1.66 7.02 -2.32 5.04 -3 3 C-2.34 3 -1.68 3 -1 3 C-0.67 2.01 -0.34 1.02 0 0 Z " fill="#292828" transform="translate(1147,190)"/>
<path d="M0 0 C2.59 1.29 2.96 2.33 4 5 C4.37 8.78 4.18 9.73 2 13 C0.48 11.82 0.48 11.82 -1 10 C-1.07 7.52 -1.07 7.52 -0.69 4.81 C-0.57 3.91 -0.45 3.01 -0.32 2.08 C-0.22 1.39 -0.11 0.71 0 0 Z M0 5 C0.33 6.65 0.66 8.3 1 10 C1.33 10 1.66 10 2 10 C2 8.35 2 6.7 2 5 C1.34 5 0.68 5 0 5 Z " fill="#3A6460" transform="translate(488,183)"/>
<path d="M0 0 C0.66 0 1.32 0 2 0 C3.81 4.46 4.12 7.31 3 12 C2.01 12 1.02 12 0 12 C-0.76 7.68 -1.16 4.26 0 0 Z M0 5 C0.66 6.32 1.32 7.64 2 9 C1.67 7.68 1.34 6.36 1 5 C0.67 5 0.34 5 0 5 Z " fill="#3B746E" transform="translate(540,185)"/>
<path d="M0 0 C2.72 0.37 4.61 0.73 6.88 2.31 C8 4 8 4 7.69 6.19 C7.46 6.79 7.23 7.38 7 8 C7 7.01 7 6.02 7 5 C6.67 5.99 6.34 6.98 6 8 C5.01 8 4.02 8 3 8 C2.88 7.2 2.75 6.39 2.62 5.56 C2.32 4.29 2.32 4.29 2 3 C1.34 2.67 0.68 2.34 0 2 C0 1.34 0 0.68 0 0 Z " fill="#386964" transform="translate(427,183)"/>
<path d="M0 0 C1.32 0.33 2.64 0.66 4 1 C4 3 4 5 4 7 C4.66 7.33 5.32 7.66 6 8 C6 8.66 6 9.32 6 10 C4.35 9.67 2.7 9.34 1 9 C0.67 6.03 0.34 3.06 0 0 Z " fill="#201F1F" transform="translate(1109,190)"/>
<path d="M0 0 C0 1.98 0 3.96 0 6 C-2.31 6 -4.62 6 -7 6 C-7.33 5.01 -7.66 4.02 -8 3 C-3.38 0 -3.38 0 0 0 Z M-4 3 C-3.34 3.66 -2.68 4.32 -2 5 C-2 4.34 -2 3.68 -2 3 C-2.66 3 -3.32 3 -4 3 Z " fill="#1B1A1B" transform="translate(1136,179)"/>
<path d="M0 0 C0.33 0 0.66 0 1 0 C1 10.23 1 20.46 1 31 C0.67 31 0.34 31 0 31 C0 20.77 0 10.54 0 0 Z " fill="#201F1F" transform="translate(825,40)"/>
<path d="M0 0 C0.33 0 0.66 0 1 0 C1 10.23 1 20.46 1 31 C0.67 31 0.34 31 0 31 C0 20.77 0 10.54 0 0 Z " fill="#201F1F" transform="translate(400,40)"/>
<path d="M0 0 C0.66 0.33 1.32 0.66 2 1 C2 4.3 2 7.6 2 11 C1.01 11 0.02 11 -1 11 C-1.03 9.35 -1.05 7.71 -1.06 6.06 C-1.07 5.15 -1.09 4.23 -1.1 3.29 C-1 1 -1 1 0 0 Z " fill="#262525" transform="translate(1102,188)"/>
<path d="M0 0 C2.87 0.57 3.86 0.86 6 3 C5.01 3.33 4.02 3.66 3 4 C2.67 4.99 2.34 5.98 2 7 C3.32 7.66 4.64 8.32 6 9 C4.68 9.33 3.36 9.66 2 10 C0 3.38 0 3.38 0 0 Z " fill="#1B1A1A" transform="translate(1185,190)"/>
<path d="M0 0 C0.33 0 0.66 0 1 0 C1 9.57 1 19.14 1 29 C0.67 29 0.34 29 0 29 C0 19.43 0 9.86 0 0 Z " fill="#201F1F" transform="translate(780,98)"/>
<path d="M0 0 C0 0.99 0 1.98 0 3 C1.32 3.33 2.64 3.66 4 4 C3.67 5.32 3.34 6.64 3 8 C1.68 7.67 0.36 7.34 -1 7 C-0.01 7 0.98 7 2 7 C0.07 4.78 0.07 4.78 -3 4 C-3.99 4.5 -3.99 4.5 -5 5 C-5 3.68 -5 2.36 -5 1 C-2 0 -2 0 0 0 Z " fill="#111112" transform="translate(1264,192)"/>
<path d="M0 0 C0.12 6.75 0.12 6.75 -1 9 C-1.99 8.67 -2.98 8.34 -4 8 C-4 5.69 -4 3.38 -4 1 C-1 0 -1 0 0 0 Z " fill="#3D827B" transform="translate(362,183)"/>
<path d="M0 0 C1.21 0.03 1.21 0.03 2.44 0.06 C2.77 2.7 3.1 5.34 3.44 8.06 C2.45 7.73 1.46 7.4 0.44 7.06 C0.44 6.4 0.44 5.74 0.44 5.06 C-0.22 5.06 -0.88 5.06 -1.56 5.06 C-1.56 4.4 -1.56 3.74 -1.56 3.06 C-2.22 2.4 -2.88 1.74 -3.56 1.06 C-2.56 0.06 -2.56 0.06 0 0 Z " fill="#1D1C1D" transform="translate(1115.5625,176.9375)"/>
<path d="M0 0 C0.83 2.89 1 4.89 1 8 C1.66 8 2.32 8 3 8 C2.67 8.66 2.34 9.32 2 10 C1.01 10 0.02 10 -1 10 C-1.99 7.03 -2.98 4.06 -4 1 C-2.68 0.67 -1.36 0.34 0 0 Z " fill="#201F1F" transform="translate(1189,175)"/>
<path d="M0 0 C1.32 0 2.64 0 4 0 C4.33 1.98 4.66 3.96 5 6 C2.62 6.19 2.62 6.19 0 6 C-0.66 5.01 -1.32 4.02 -2 3 C-1.34 2.01 -0.68 1.02 0 0 Z " fill="#384D4A" transform="translate(580,189)"/>
<path d="M0 0 C0.99 0 1.98 0 3 0 C3.33 0.99 3.66 1.98 4 3 C2.33 4.67 0.67 6.33 -1 8 C-1.99 8 -2.98 8 -4 8 C-3.67 7.01 -3.34 6.02 -3 5 C-2.34 5 -1.68 5 -1 5 C-0.67 3.35 -0.34 1.7 0 0 Z " fill="#3E504D" transform="translate(374,188)"/>
<path d="M0 0 C1.32 0 2.64 0 4 0 C3.45 3.37 2.95 5.08 1 8 C-0.98 7.34 -2.96 6.68 -5 6 C-4.01 5.67 -3.02 5.34 -2 5 C-1.34 5.33 -0.68 5.66 0 6 C0 4.02 0 2.04 0 0 Z M2 1 C3 3 3 3 3 3 Z " fill="#3B837C" transform="translate(432,176)"/>
<path d="M0 0 C3.15 3.42 3.56 6.44 4 11 C4.99 11.33 5.98 11.66 7 12 C7 12.66 7 13.32 7 14 C6.34 14 5.68 14 5 14 C5 13.34 5 12.68 5 12 C4.34 12 3.68 12 3 12 C3 10.35 3 8.7 3 7 C2.01 6.67 1.02 6.34 0 6 C0 4.02 0 2.04 0 0 Z " fill="#3B6E69" transform="translate(571,181)"/>
<path d="M0 0 C1.32 1.32 2.64 2.64 4 4 C3.34 5.32 2.68 6.64 2 8 C2 6.68 2 5.36 2 4 C1.34 4 0.68 4 0 4 C0 5.65 0 7.3 0 9 C-0.33 9 -0.66 9 -1 9 C-0.67 6.03 -0.34 3.06 0 0 Z M-2 9 C-1.67 9 -1.34 9 -1 9 C-1 10.65 -1 12.3 -1 14 C-1.33 14 -1.66 14 -2 14 C-2 12.35 -2 10.7 -2 9 Z " fill="#363A39" transform="translate(383,179)"/>
<path d="M0 0 C5.54 -0.37 5.54 -0.37 7.88 1.5 C8.25 2 8.62 2.49 9 3 C8 4 8 4 4.44 4.06 C3.3 4.04 2.17 4.02 1 4 C0.67 2.68 0.34 1.36 0 0 Z M2 2 C6 3 6 3 6 3 Z " fill="#374F4C" transform="translate(454,193)"/>
<path d="M0 0 C0.99 0 1.98 0 3 0 C3.75 3.66 4.24 6.42 3 10 C2.34 10 1.68 10 1 10 C0.67 6.7 0.34 3.4 0 0 Z " fill="#363434" transform="translate(1213,189)"/>
<path d="M0 0 C0.99 0 1.98 0 3 0 C3 2.64 3 5.28 3 8 C2.01 8 1.02 8 0 8 C0 5.36 0 2.72 0 0 Z " fill="#1A191A" transform="translate(1208,177)"/>
<path d="M0 0 C0.99 0.33 1.98 0.66 3 1 C1.25 4.88 1.25 4.88 -1 6 C-1.72 7.64 -2.39 9.31 -3 11 C-3.66 9.68 -4.32 8.36 -5 7 C-4.34 7 -3.68 7 -3 7 C-3 6.01 -3 5.02 -3 4 C-2.34 3.34 -1.68 2.68 -1 2 C-0.67 1.34 -0.34 0.68 0 0 Z " fill="#37756F" transform="translate(551,173)"/>
<path d="M0 0 C0.99 0.33 1.98 0.66 3 1 C3.33 3.97 3.66 6.94 4 10 C3.01 10 2.02 10 1 10 C0.67 6.7 0.34 3.4 0 0 Z " fill="#353333" transform="translate(1073,174)"/>
<path d="M0 0 C0.99 0.33 1.98 0.66 3 1 C4.1 4.29 3.8 5.71 3 9 C2.34 8.67 1.68 8.34 1 8 C0.41 5.35 0.26 2.71 0 0 Z " fill="#252424" transform="translate(1105,191)"/>
<path d="M0 0 C1.98 0 3.96 0 6 0 C6.66 1.32 7.32 2.64 8 4 C7.22 3.79 6.43 3.59 5.62 3.38 C4.76 3.25 3.89 3.13 3 3 C2.34 3.66 1.68 4.32 1 5 C0.67 3.35 0.34 1.7 0 0 Z " fill="#201F1F" transform="translate(1200,191)"/>
<path d="M0 0 C1.68 0.29 3.34 0.62 5 1 C5.33 1.99 5.66 2.98 6 4 C4.35 4 2.7 4 1 4 C1 3.34 1 2.68 1 2 C0.34 1.67 -0.32 1.34 -1 1 C-0.67 0.67 -0.34 0.34 0 0 Z " fill="#363434" transform="translate(460,178)"/>
<path d="M0 0 C0.99 0 1.98 0 3 0 C3 2.31 3 4.62 3 7 C2.34 7 1.68 7 1 7 C0.67 4.69 0.34 2.38 0 0 Z " fill="#212020" transform="translate(1182,177)"/>
<path d="M0 0 C0.33 0 0.66 0 1 0 C1 5.61 1 11.22 1 17 C0.67 17 0.34 17 0 17 C0 11.39 0 5.78 0 0 Z " fill="#201F1F" transform="translate(981,98)"/>
<path d="M0 0 C0.66 0.99 1.32 1.98 2 3 C2.66 3.33 3.32 3.66 4 4 C2.35 4.33 0.7 4.66 -1 5 C-1.33 3.68 -1.66 2.36 -2 1 C-1.34 0.67 -0.68 0.34 0 0 Z " fill="#2D2B2B" transform="translate(1257,195)"/>
<path d="M0 0 C0.99 0 1.98 0 3 0 C3 2.31 3 4.62 3 7 C0.75 4.95 -0 3.99 -1 1 C-0.67 0.67 -0.34 0.34 0 0 Z M1 1 C2 4 2 4 2 4 Z " fill="#3A8079" transform="translate(573,179)"/>
<path d="M0 0 C0.33 0 0.66 0 1 0 C1 4.95 1 9.9 1 15 C0.67 15 0.34 15 0 15 C0 10.05 0 5.1 0 0 Z " fill="#201F1F" transform="translate(981,129)"/>
<path d="M0 0 C2.76 2.76 2.58 5.21 3 9 C2.34 9 1.68 9 1 9 C0.67 6.03 0.34 3.06 0 0 Z " fill="#42B8AD" transform="translate(516,188)"/>
<path d="M0 0 C0.33 0 0.66 0 1 0 C1 3.96 1 7.92 1 12 C0.67 12 0.34 12 0 12 C0 8.04 0 4.08 0 0 Z " fill="#201F1F" transform="translate(543,98)"/>
<path d="M0 0 C0.33 0 0.66 0 1 0 C1 2.64 1 5.28 1 8 C0.34 7.67 -0.32 7.34 -1 7 C-0.67 4.69 -0.34 2.38 0 0 Z " fill="#272526" transform="translate(1271,192)"/>
<path d="M0 0 C0.66 0 1.32 0 2 0 C2 1.98 2 3.96 2 6 C1.34 6 0.68 6 0 6 C0 4.02 0 2.04 0 0 Z " fill="#3B716C" transform="translate(396,179)"/>
<path d="M0 0 C0.66 0 1.32 0 2 0 C2 1.98 2 3.96 2 6 C1.34 5.34 0.68 4.68 0 4 C0 2.68 0 1.36 0 0 Z " fill="#3F9991" transform="translate(378,180)"/>
<path d="M0 0 C1.56 1.19 1.56 1.19 3 3 C2.69 5.69 2.69 5.69 2 8 C1.67 8 1.34 8 1 8 C0.67 5.36 0.34 2.72 0 0 Z " fill="#201F20" transform="translate(1088,176)"/>
<path d="M0 0 C1.98 0 3.96 0 6 0 C5.34 0.66 4.68 1.32 4 2 C2.68 2 1.36 2 0 2 C0 1.34 0 0.68 0 0 Z " fill="#131213" transform="translate(1129,177)"/>
<path d="M0 0 C0.33 0.99 0.66 1.98 1 3 C0.01 3.33 -0.98 3.66 -2 4 C-1 1 -1 1 0 0 Z " fill="#272525" transform="translate(1202,196)"/>
<path d="M0 0 C0.99 0 1.98 0 3 0 C3 0.99 3 1.98 3 3 C2.01 2.67 1.02 2.34 0 2 C0 1.34 0 0.68 0 0 Z " fill="#222121" transform="translate(1105,188)"/>
<path d="M0 0 C0.66 0 1.32 0 2 0 C2 0.99 2 1.98 2 3 C1.01 3 0.02 3 -1 3 C-0.67 2.01 -0.34 1.02 0 0 Z " fill="#0E0E0F" transform="translate(1209,173)"/>
<path d="M0 0 C0.33 0.99 0.66 1.98 1 3 C0.01 3 -0.98 3 -2 3 C-2 2.34 -2 1.68 -2 1 C-1.34 0.67 -0.68 0.34 0 0 Z " fill="#1D1C1C" transform="translate(1271,188)"/>
<path d="M0 0 C0.99 1.32 1.98 2.64 3 4 C2.01 4.5 2.01 4.5 1 5 C0.67 3.35 0.34 1.7 0 0 Z " fill="#0F0E10" transform="translate(1112,180)"/>
<path d="M0 0 C0.99 0.5 0.99 0.5 2 1 C1.67 1.99 1.34 2.98 1 4 C0.67 2.68 0.34 1.36 0 0 Z " fill="#151415" transform="translate(1206,196)"/>
<path d="M0 0 C0.33 0 0.66 0 1 0 C1 1.98 1 3.96 1 6 C0.67 6 0.34 6 0 6 C0 4.02 0 2.04 0 0 Z " fill="#363434" transform="translate(1212,190)"/>
<path d="M0 0 C0.66 0.33 1.32 0.66 2 1 C2 1.66 2 2.32 2 3 C1.01 2.67 0.02 2.34 -1 2 C-0.67 1.34 -0.34 0.68 0 0 Z " fill="#252424" transform="translate(1126,183)"/>
<path d="M0 0 C0.66 0 1.32 0 2 0 C1.67 0.99 1.34 1.98 1 3 C0.34 2.34 -0.32 1.68 -1 1 C-0.67 0.67 -0.34 0.34 0 0 Z " fill="#0E0D0F" transform="translate(1156,182)"/>
<path d="M0 0 C0.66 0.33 1.32 0.66 2 1 C1.67 1.66 1.34 2.32 1 3 C0.34 3 -0.32 3 -1 3 C-0.67 2.01 -0.34 1.02 0 0 Z " fill="#222021" transform="translate(1107,182)"/>
<path d="M0 0 C0.33 0 0.66 0 1 0 C1 1.98 1 3.96 1 6 C0.67 6 0.34 6 0 6 C0 4.02 0 2.04 0 0 Z " fill="#232222" transform="translate(1091,179)"/>
<path d="M0 0 C0.33 0 0.66 0 1 0 C1 1.98 1 3.96 1 6 C0.67 6 0.34 6 0 6 C0 4.02 0 2.04 0 0 Z " fill="#201F1F" transform="translate(884,138)"/>
<path d="M0 0 C0.33 0 0.66 0 1 0 C1 1.98 1 3.96 1 6 C0.67 6 0.34 6 0 6 C0 4.02 0 2.04 0 0 Z " fill="#201F1F" transform="translate(330,138)"/>
<path d="M0 0 C0.66 0 1.32 0 2 0 C1.67 0.99 1.34 1.98 1 3 C0.67 2.01 0.34 1.02 0 0 Z " fill="#0C0C0D" transform="translate(1141,189)"/>
<path d="M0 0 C0.66 0 1.32 0 2 0 C2 0.66 2 1.32 2 2 C1.01 1.67 0.02 1.34 -1 1 C-0.67 0.67 -0.34 0.34 0 0 Z " fill="#1C1B1B" transform="translate(1078,183)"/>
<path d="M0 0 C0.99 0.33 1.98 0.66 3 1 C2.67 1.66 2.34 2.32 2 3 C1.34 2.01 0.68 1.02 0 0 Z " fill="#395553" transform="translate(385,179)"/>
<path d="M0 0 C0.66 0 1.32 0 2 0 C1.67 0.99 1.34 1.98 1 3 C0.67 2.01 0.34 1.02 0 0 Z " fill="#191819" transform="translate(1183,173)"/>
<path d="M0 0 C0.33 0 0.66 0 1 0 C1 1.65 1 3.3 1 5 C0.67 5 0.34 5 0 5 C0 3.35 0 1.7 0 0 Z " fill="#201F1F" transform="translate(370,139)"/>
<path d="M0 0 C1 4 1 4 1 4 Z " fill="#252424" transform="translate(1072,192)"/>
<path d="M0 0 C1 4 1 4 1 4 Z " fill="#201F1F" transform="translate(1269,192)"/>
<path d="M0 0 C1 4 1 4 1 4 Z " fill="#363434" transform="translate(1072,176)"/>
<path d="M0 0 C0 3 0 3 0 3 Z " fill="#363434" transform="translate(499,172)"/>
<path d="M0 0 C4 1 4 1 4 1 Z " fill="#201F1F" transform="translate(692,37)"/>
<path d="M0 0 C0.33 0.66 0.66 1.32 1 2 C0.34 1.67 -0.32 1.34 -1 1 C-0.67 0.67 -0.34 0.34 0 0 Z " fill="#40A49B" transform="translate(583,195)"/>
<path d="M0 0 C3 1 3 1 3 1 Z " fill="#201F1F" transform="translate(1265,193)"/>
<path d="" fill="#363434" transform="translate(0,0)"/>
<path d="M0 0 C0.66 0 1.32 0 2 0 C1.67 0.66 1.34 1.32 1 2 C0.67 1.34 0.34 0.68 0 0 Z " fill="#1C1B1C" transform="translate(1170,183)"/>
<path d="" fill="#201F1F" transform="translate(0,0)"/>
<path d="" fill="#F20F0E" transform="translate(0,0)"/>
<path d="M0 0 C2 1 2 1 2 1 Z " fill="#46DDCF" transform="translate(590,196)"/>
<path d="M0 0 C2 1 2 1 2 1 Z " fill="#46DDCF" transform="translate(488,196)"/>
<path d="M0 0 C2 1 2 1 2 1 Z " fill="#46DDCF" transform="translate(401,196)"/>
<path d="" fill="#201F1F" transform="translate(0,0)"/>
<path d="" fill="#46DDCF" transform="translate(0,0)"/>
<path d="M0 0 C2 1 2 1 2 1 Z " fill="#2B2929" transform="translate(1264,191)"/>
<path d="" fill="#F20F0E" transform="translate(0,0)"/>
<path d="" fill="#F20F0E" transform="translate(0,0)"/>
<path d="M0 0 C2 1 2 1 2 1 Z " fill="#201F1F" transform="translate(1247,190)"/>
<path d="M0 0 C2 1 2 1 2 1 Z " fill="#363434" transform="translate(1082,190)"/>
<path d="" fill="#3E8881" transform="translate(0,0)"/>
<path d="" fill="#363434" transform="translate(0,0)"/>
<path d="M0 0 C2 1 2 1 2 1 Z " fill="#F20F0E" transform="translate(701,169)"/>
<path d="M0 0 C2 1 2 1 2 1 Z " fill="#F20F0E" transform="translate(679,169)"/>
<path d="" fill="#100F10" transform="translate(0,0)"/>
<path d="" fill="#201F1F" transform="translate(0,0)"/>
<path d="M0 0 C2 1 2 1 2 1 Z " fill="#100F10" transform="translate(1225,142)"/>
<path d="" fill="#F20F0E" transform="translate(0,0)"/>
<path d="" fill="#201F1F" transform="translate(0,0)"/>
<path d="" fill="#201F1F" transform="translate(0,0)"/>
<path d="" fill="#201F1F" transform="translate(0,0)"/>
<path d="" fill="#363434" transform="translate(0,0)"/>
<path d="" fill="#000002" transform="translate(0,0)"/>
<path d="" fill="#000002" transform="translate(0,0)"/>
<path d="" fill="#000002" transform="translate(0,0)"/>
<path d="" fill="#363434" transform="translate(0,0)"/>
<path d="" fill="#363434" transform="translate(0,0)"/>
<path d="" fill="#363434" transform="translate(0,0)"/>
<path d="" fill="#201F1F" transform="translate(0,0)"/>
<path d="" fill="#363434" transform="translate(0,0)"/>
<path d="" fill="#F20F0E" transform="translate(0,0)"/>
<path d="" fill="#363434" transform="translate(0,0)"/>
<path d="" fill="#363434" transform="translate(0,0)"/>
<path d="" fill="#201F1F" transform="translate(0,0)"/>
<path d="" fill="#46DDCF" transform="translate(0,0)"/>
<path d="" fill="#000002" transform="translate(0,0)"/>
<path d="" fill="#201F1F" transform="translate(0,0)"/>
<path d="" fill="#201F1F" transform="translate(0,0)"/>
<path d="" fill="#201F1F" transform="translate(0,0)"/>
<path d="" fill="#201F1F" transform="translate(0,0)"/>
<path d="" fill="#201F1F" transform="translate(0,0)"/>
<path d="" fill="#201F1F" transform="translate(0,0)"/>
<path d="" fill="#363434" transform="translate(0,0)"/>
<path d="" fill="#201F1F" transform="translate(0,0)"/>
<path d="" fill="#201F1F" transform="translate(0,0)"/>
<path d="" fill="#363434" transform="translate(0,0)"/>
<path d="" fill="#000002" transform="translate(0,0)"/>
<path d="" fill="#000002" transform="translate(0,0)"/>
<path d="" fill="#201F1F" transform="translate(0,0)"/>
<path d="" fill="#363434" transform="translate(0,0)"/>
<path d="" fill="#201F1F" transform="translate(0,0)"/>
<path d="" fill="#201F1F" transform="translate(0,0)"/>
<path d="" fill="#201F1F" transform="translate(0,0)"/>
<path d="" fill="#363434" transform="translate(0,0)"/>
<path d="" fill="#000002" transform="translate(0,0)"/>
<path d="" fill="#201F1F" transform="translate(0,0)"/>
<path d="" fill="#46DDCF" transform="translate(0,0)"/>
<path d="" fill="#46DDCF" transform="translate(0,0)"/>
<path d="" fill="#201F1F" transform="translate(0,0)"/>
<path d="" fill="#201F1F" transform="translate(0,0)"/>
<path d="" fill="#000002" transform="translate(0,0)"/>
<path d="" fill="#000002" transform="translate(0,0)"/>
<path d="" fill="#000002" transform="translate(0,0)"/>
<path d="" fill="#363434" transform="translate(0,0)"/>
<path d="" fill="#201F1F" transform="translate(0,0)"/>
<path d="" fill="#201F1F" transform="translate(0,0)"/>
<path d="" fill="#201F1F" transform="translate(0,0)"/>
<path d="" fill="#46DDCF" transform="translate(0,0)"/>
<path d="" fill="#46DDCF" transform="translate(0,0)"/>
<path d="" fill="#201F1F" transform="translate(0,0)"/>
<path d="" fill="#46DDCF" transform="translate(0,0)"/>
<path d="" fill="#363434" transform="translate(0,0)"/>
<path d="" fill="#F20F0E" transform="translate(0,0)"/>
<path d="" fill="#000002" transform="translate(0,0)"/>
<path d="" fill="#000002" transform="translate(0,0)"/>
<path d="" fill="#201F1F" transform="translate(0,0)"/>
<path d="" fill="#201F1F" transform="translate(0,0)"/>
<path d="" fill="#201F1F" transform="translate(0,0)"/>
<path d="" fill="#201F1F" transform="translate(0,0)"/>
<path d="" fill="#201F1F" transform="translate(0,0)"/>
<path d="" fill="#201F1F" transform="translate(0,0)"/>
<path d="" fill="#201F1F" transform="translate(0,0)"/>
<path d="" fill="#201F1F" transform="translate(0,0)"/>
<path d="" fill="#201F1F" transform="translate(0,0)"/>
<path d="" fill="#000000" transform="translate(0,0)"/>
<path d="" fill="#000002" transform="translate(0,0)"/>
<path d="" fill="#201F1F" transform="translate(0,0)"/>
<path d="" fill="#201F1F" transform="translate(0,0)"/>
</svg>
